<svg xmlns="http://www.w3.org/2000/svg" xmlns:xlink="http://www.w3.org/1999/xlink" width="500" viewBox="0 0 375 374.999991" height="500" preserveAspectRatio="xMidYMid meet"><defs><g></g><clipPath id="9f2ef69618"><path d="M 81 101 L 301.671875 101 L 301.671875 221.125 L 81 221.125 Z M 81 101 " clip-rule="nonzero"></path></clipPath><clipPath id="e3e8bb5c7a"><path d="M 73.671875 194 L 118 194 L 118 215 L 73.671875 215 Z M 73.671875 194 " clip-rule="nonzero"></path></clipPath><clipPath id="4affc6e9e3"><path d="M 286 99.625 L 290 99.625 L 290 103 L 286 103 Z M 286 99.625 " clip-rule="nonzero"></path></clipPath></defs><path fill="#faad06" d="M 258.207031 173.59375 C 257.816406 171.683594 257.417969 169.769531 256.5625 167.996094 C 256.136719 167.117188 255.667969 166.253906 255.355469 165.324219 C 254.707031 163.664062 253.078125 162.636719 251.671875 161.65625 C 246.925781 158.792969 243.609375 154.238281 239.390625 150.71875 C 236.308594 147.964844 232.714844 145.804688 228.863281 144.304688 C 228.613281 144.207031 228.296875 144.183594 228.175781 143.867188 C 225.945312 143.34375 223.742188 142.660156 221.449219 142.445312 C 221.199219 142.417969 220.90625 142.445312 220.800781 142.121094 C 220.355469 142.242188 219.925781 142.253906 219.53125 141.972656 C 211.875 142.070312 209.75 143.988281 205.527344 150.066406 C 204.019531 152.085938 202.703125 154.378906 200.566406 155.808594 C 200.160156 156.074219 199.722656 156.257812 199.21875 156.21875 C 190.253906 156.21875 181.234375 155.773438 172.304688 156.632812 C 172.605469 156.632812 172.910156 156.632812 173.214844 156.632812 C 168.847656 157.464844 164.417969 157.585938 160.035156 158.308594 C 154.214844 159.101562 148.765625 161.335938 143.183594 162.933594 C 144.089844 162.421875 144.976562 161.964844 145.894531 161.574219 C 146.109375 161.484375 146.519531 161.425781 146.460938 161.148438 C 146.382812 160.789062 145.984375 160.960938 145.734375 160.980469 C 142.535156 161.195312 139.390625 161.765625 136.265625 162.453125 C 133.03125 163.234375 129.84375 164.171875 126.605469 164.941406 C 126.390625 165.011719 126.171875 165.21875 125.835938 165.035156 C 128.332031 163.484375 131.050781 162.550781 133.734375 161.453125 C 133.023438 160.792969 129.273438 162.605469 128.152344 162.753906 C 128.152344 162.753906 128.167969 162.75 128.167969 162.75 C 128.09375 162.804688 128.03125 162.976562 127.933594 162.773438 C 122.742188 164.5625 116.195312 165.414062 113.128906 170.46875 C 113.085938 170.910156 113.082031 171.347656 113.160156 171.789062 C 113.417969 170.875 114.066406 170.429688 114.953125 170.195312 C 119.625 169.183594 124.40625 168.738281 129.171875 168.457031 C 134.40625 168.253906 139.652344 168.378906 144.875 168.746094 C 145.558594 168.808594 146.285156 168.957031 146.773438 169.46875 C 149.125 170.175781 146.445312 175.316406 145.6875 176.679688 C 144.703125 178.472656 143.453125 180.230469 141.507812 181.070312 C 139.734375 181.882812 137.851562 182.265625 135.949219 182.597656 C 130.578125 183.492188 125.042969 184.246094 119.734375 182.636719 C 117.390625 182.054688 114.554688 181.40625 113.753906 178.789062 C 113.675781 178.546875 113.601562 178.285156 113.761719 178.035156 C 113.332031 176.6875 113.417969 175.261719 113.128906 173.898438 C 113.066406 173.882812 113.007812 173.871094 112.945312 173.859375 C 113.210938 174.890625 113.390625 175.933594 113.300781 177.003906 C 113.089844 178.769531 110.199219 178.285156 110.070312 175.933594 C 107.730469 177.40625 108.074219 178.890625 107.664062 181.289062 C 109.554688 182.324219 111.566406 183.234375 113.144531 184.742188 C 113.546875 185.019531 113.242188 185.347656 112.882812 185.046875 C 112.335938 184.734375 111.773438 184.425781 111.167969 184.265625 C 110.03125 183.96875 108.992188 183.402344 107.871094 183.066406 C 107.75 183.027344 107.632812 182.945312 107.507812 183.054688 C 107.871094 183.335938 108.261719 183.601562 108.683594 183.738281 C 110.046875 184.171875 111.359375 184.753906 112.585938 185.46875 C 112.917969 185.5625 115.085938 186.445312 114.882812 186.792969 C 111.589844 186.96875 113.445312 186.738281 111.578125 190.777344 C 111.246094 191.535156 110.875 192.277344 110.371094 192.9375 C 109.8125 193.671875 109.808594 193.671875 110.480469 194.277344 C 110.558594 194.347656 110.625 194.433594 110.773438 194.441406 C 113.417969 188.320312 114.925781 186.878906 121.722656 187.101562 C 126.941406 187.199219 132.171875 186.960938 137.378906 187.328125 C 138.683594 187.433594 139.953125 187.675781 141.171875 188.1875 C 144.015625 189.378906 146.210938 191.566406 148.515625 193.539062 C 149.71875 194.496094 151.101562 195.621094 152.746094 195.261719 C 152.632812 194.804688 151.078125 194.480469 151.277344 193.90625 C 155.699219 193.988281 160.289062 194.402344 164.773438 194.164062 C 157.027344 193.886719 156.074219 194.730469 152.378906 187.1875 C 152.121094 186.652344 152.113281 186.648438 151.550781 186.703125 C 148.417969 186.804688 145.261719 187.117188 142.132812 186.941406 C 148.320312 185.464844 154.535156 183.984375 160.84375 183.0625 C 164.632812 182.699219 169.226562 181.402344 172.1875 184.554688 C 173.5625 186.085938 174.988281 187.863281 175.402344 189.90625 C 175.699219 190.039062 175.652344 190.3125 175.660156 190.554688 C 175.773438 192.515625 174.445312 193.945312 173.007812 195.066406 C 172.363281 195.511719 174.015625 196.804688 174.378906 197.105469 C 175.167969 197.507812 177.273438 197.097656 178.226562 197.003906 C 178.53125 196.949219 178.625 196.824219 178.558594 196.53125 C 178.4375 195.75 178.148438 194.945312 178.382812 194.160156 C 178.132812 186.835938 179.226562 178.972656 183.777344 172.980469 C 186.632812 169.15625 192.386719 167.414062 196.128906 171.078125 C 203.074219 176.367188 205.4375 181.832031 205.273438 190.4375 C 217.300781 188.691406 229.308594 186.8125 241.304688 184.871094 C 242.640625 184.761719 242.898438 184.695312 243.210938 183.335938 C 244.832031 179.5 245.257812 173.375 248.890625 170.945312 C 253.941406 168.644531 255.671875 178.589844 255.144531 181.980469 C 257.363281 179.921875 258.917969 176.660156 258.207031 173.59375 Z M 111.132812 180.910156 C 110.449219 180.457031 109.742188 180.027344 109.203125 179.386719 C 108.257812 178.496094 109.226562 176.640625 109.824219 177.636719 C 110.34375 178.839844 111.304688 179.707031 112.066406 180.71875 C 112.238281 180.945312 112.394531 181.167969 112.421875 181.558594 C 111.886719 181.40625 111.507812 181.15625 111.132812 180.910156 Z M 128.421875 186.5 C 124.867188 186.335938 121.175781 186.507812 117.738281 185.503906 C 122.804688 185.59375 127.855469 185.949219 132.90625 186.613281 C 131.410156 186.574219 129.914062 186.542969 128.421875 186.5 Z M 204.144531 158.960938 C 206.542969 153.300781 209.707031 145.21875 216.339844 143.761719 C 217.925781 143.433594 219.539062 143.628906 221.128906 143.414062 C 227.046875 143.257812 233.375 146.578125 237.726562 150.386719 C 238.5625 151.152344 239.234375 152.070312 240.042969 152.859375 C 240.195312 153.003906 240.484375 153.121094 240.320312 153.433594 C 242.199219 155.445312 244.246094 157.371094 245.679688 159.730469 C 237.632812 158.777344 229.554688 157.96875 221.433594 157.90625 C 220.363281 157.851562 220.566406 158.875 218.976562 158.855469 C 216.183594 158.96875 213.453125 158.984375 210.648438 158.984375 C 210.777344 159.648438 211.359375 159.996094 211.449219 160.617188 C 210.324219 160.417969 208.910156 160.558594 208.164062 159.527344 C 207.996094 159.277344 207.78125 159.226562 207.5 159.222656 C 206.496094 159.21875 205.507812 159.375 204.507812 159.394531 C 204.097656 159.40625 204.042969 159.355469 204.144531 158.960938 Z M 243.867188 161.863281 C 244.160156 161.949219 245.136719 161.882812 245.144531 162.25 C 245.203125 162.6875 244.691406 162.816406 244.347656 162.761719 C 243.574219 162.601562 241.195312 162.664062 241.246094 161.589844 C 241.546875 160.40625 243.382812 160.949219 244.210938 161.261719 C 243.535156 161.300781 241.875 160.628906 241.578125 161.566406 C 242.328125 161.75 243.101562 161.789062 243.867188 161.863281 Z M 206.625 162.304688 C 213.105469 161.917969 219.632812 162.234375 226.09375 162.253906 C 226.25 162.488281 226.460938 162.460938 226.683594 162.378906 C 226.921875 162.769531 227.46875 162.660156 227.835938 162.90625 C 220.570312 163.535156 213.242188 163.0625 205.964844 163.488281 C 205.859375 163.308594 205.953125 163.160156 205.945312 163.011719 C 205.921875 162.34375 205.925781 162.335938 206.625 162.304688 Z M 227.464844 162.335938 C 227.210938 162.289062 226.933594 162.097656 226.679688 162.367188 C 226.523438 162.074219 226.417969 162.046875 226.109375 162.230469 C 226.191406 161.703125 224.457031 161.960938 225.121094 160.367188 C 225.105469 160.359375 225.085938 160.355469 225.070312 160.351562 C 225.078125 160.335938 225.09375 160.320312 225.101562 160.304688 L 225.085938 160.335938 L 225.117188 160.351562 C 225.226562 159.839844 225.703125 159.828125 226.035156 159.828125 C 226.523438 159.785156 229.996094 160.015625 229.425781 160.835938 C 229.546875 161.054688 229.824219 161.160156 229.816406 161.476562 C 229.847656 162.6875 228.28125 162.488281 227.464844 162.335938 Z M 199.367188 162.910156 C 201.265625 162.714844 203.160156 162.472656 205.074219 162.414062 C 205.707031 162.191406 205.800781 162.867188 205.628906 163.335938 C 205.546875 163.550781 205.351562 163.507812 205.183594 163.511719 C 200.542969 163.578125 196.117188 164.214844 191.445312 164.167969 C 194.167969 163.601562 196.753906 163.175781 199.367188 162.910156 Z M 149.308594 163.675781 C 156.667969 159.449219 165.28125 158 173.695312 158.21875 C 174.308594 158.335938 176.613281 158.109375 176.699219 158.777344 C 167.257812 161.011719 157.367188 162.554688 147.792969 164.640625 C 147.792969 164.609375 147.792969 164.582031 147.792969 164.550781 C 148.292969 164.257812 148.789062 163.949219 149.308594 163.675781 Z M 145.503906 182.515625 C 145.445312 182.527344 145.382812 182.59375 145.328125 182.539062 C 145.382812 182.53125 145.441406 182.523438 145.503906 182.515625 Z M 165.839844 181.285156 C 158.003906 182.3125 150.105469 183.714844 142.601562 186.054688 C 149.441406 182.597656 160.371094 180.285156 168.023438 180.855469 C 167.246094 181.128906 166.535156 181.195312 165.839844 181.285156 Z M 168.609375 175.285156 C 161.179688 178.417969 153.222656 180.074219 145.554688 182.5 C 145.566406 182.21875 145.832031 182.210938 146 182.117188 C 147.667969 181.1875 149.464844 180.625 151.304688 180.167969 C 157.464844 178.457031 163.210938 176.300781 169.484375 174.722656 C 169.109375 174.96875 168.871094 175.144531 168.609375 175.285156 Z M 177.957031 166.183594 C 176.066406 172.035156 169.664062 173.84375 164.316406 175.222656 C 158.957031 176.46875 155.191406 179.253906 149.535156 177.40625 C 149.125 177.296875 149.105469 177.265625 149.292969 176.871094 C 150.3125 174.410156 152.136719 172.023438 151.621094 169.226562 C 151.128906 169.152344 150.703125 169.484375 150.105469 169.382812 C 153.457031 168.1875 178.5 160.210938 177.957031 166.183594 Z M 179.609375 162.1875 C 179.449219 162.21875 179.273438 162.277344 179.097656 162.117188 C 179.175781 161.957031 179.34375 161.964844 179.46875 161.933594 C 180.695312 161.625 181.9375 161.425781 183.183594 161.238281 C 186.964844 160.480469 190.871094 160.335938 194.59375 159.6875 C 194.445312 159.496094 194.238281 159.585938 194.058594 159.589844 C 188.234375 159.828125 182.4375 159 176.609375 159.296875 C 177.355469 158.945312 178.160156 158.867188 178.953125 158.789062 C 181.4375 158.53125 183.90625 158.121094 186.382812 157.785156 C 190.546875 157.328125 194.714844 156.59375 198.90625 156.851562 C 196.648438 157.355469 194.425781 157.394531 192.351562 158.152344 C 193.554688 158.394531 194.78125 158.550781 195.953125 158.925781 C 196.6875 159.128906 197.429688 159.414062 198.191406 159.238281 C 197.535156 159.625 196.753906 159.738281 195.972656 159.839844 C 190.519531 160.617188 185.035156 161.222656 179.609375 162.1875 Z M 186.914062 168.300781 C 186.960938 168.257812 187.105469 168.261719 187.175781 168.269531 C 187.105469 168.316406 186.945312 168.449219 186.914062 168.300781 Z M 206.136719 173.96875 C 204.558594 174.738281 203.035156 174.644531 201.550781 173.730469 C 201.523438 173.761719 201.496094 173.789062 201.457031 173.8125 C 201.464844 174.441406 201.832031 175 201.835938 175.679688 C 201.277344 175.140625 200.984375 174.484375 200.671875 173.855469 C 198.355469 168.777344 192.445312 166.15625 187.199219 168.253906 C 188.632812 167.011719 192.246094 166.882812 194.109375 167.378906 C 195.699219 167.808594 197.042969 168.667969 198.28125 169.714844 C 198.535156 169.929688 198.734375 170.117188 199.121094 170.035156 C 199.429688 169.972656 199.757812 170.152344 200.054688 170.28125 C 201.828125 171.050781 203.6875 171.09375 205.566406 170.925781 C 206.320312 170.84375 206.351562 170.855469 206.429688 171.582031 C 206.496094 172.140625 206.507812 172.710938 206.570312 173.269531 C 206.617188 173.640625 206.449219 173.820312 206.136719 173.96875 Z M 241.980469 181.238281 C 230.636719 183.832031 219.140625 185.828125 207.65625 187.652344 C 213.160156 186.066406 218.824219 185.261719 224.421875 184.089844 C 230.535156 183.023438 236.617188 181.566406 242.785156 180.941406 C 242.550781 181.128906 242.253906 181.167969 241.980469 181.238281 Z M 243.972656 168 C 231.941406 171.054688 219.628906 172.859375 207.417969 175.023438 C 206.875 175.113281 206.820312 175.070312 206.828125 174.5 C 206.84375 173.300781 206.769531 172.105469 206.5625 170.925781 C 206.503906 170.605469 206.609375 170.523438 206.910156 170.46875 C 210.382812 169.871094 213.875 169.449219 217.371094 169.003906 C 225.089844 167.984375 232.863281 167.507812 240.628906 167.046875 C 242.542969 166.9375 244.453125 166.949219 246.363281 166.863281 C 246.578125 166.855469 246.796875 166.828125 247.128906 166.988281 C 246.011719 167.410156 244.996094 167.71875 243.972656 168 Z M 214.785156 165.078125 C 221.953125 164.515625 229.128906 164.84375 236.304688 165.058594 C 239.921875 165.246094 243.589844 165.265625 247.101562 166.238281 C 247.214844 166.269531 247.363281 166.273438 247.460938 166.476562 C 236.546875 165.957031 225.667969 165.425781 214.785156 165.078125 Z M 252.542969 165.078125 C 246.382812 163.972656 240.117188 164.109375 233.914062 163.433594 C 233.148438 163.285156 231.945312 163.476562 231.351562 162.972656 C 231.832031 162.503906 234.332031 162.792969 235.082031 162.832031 C 237.988281 163.011719 240.910156 163.066406 243.785156 163.542969 C 244.804688 163.804688 244.433594 163.105469 245.136719 163.191406 C 247.621094 163.058594 252.007812 163.78125 254.128906 165.046875 C 253.558594 165.175781 253.042969 165.15625 252.542969 165.078125 Z M 252.542969 165.078125 " fill-opacity="1" fill-rule="nonzero"></path><path fill="#faad06" d="M 167.21875 194.203125 C 167.105469 194 166.921875 194.054688 166.769531 194.0625 C 166.105469 194.105469 165.445312 194.140625 164.78125 194.164062 C 165.359375 194.199219 165.941406 194.234375 166.519531 194.273438 C 166.75 194.289062 166.988281 194.363281 167.21875 194.203125 Z M 167.21875 194.203125 " fill-opacity="1" fill-rule="nonzero"></path><path fill="#faad06" d="M 242.46875 188.070312 C 242.285156 187.605469 242.257812 187.589844 241.738281 187.652344 C 230.707031 188.816406 219.765625 190.6875 208.796875 192.292969 C 207.613281 192.472656 206.429688 192.660156 205.253906 192.859375 C 205.035156 192.894531 204.75 192.859375 204.679688 193.179688 C 204.5625 193.699219 204.441406 194.21875 204.324219 194.726562 C 216.488281 192.820312 228.679688 189.433594 241.125 190.242188 C 241.503906 190.28125 243.113281 190.253906 242.289062 190.757812 C 241.714844 191.085938 241.089844 191.257812 240.441406 191.371094 C 236.433594 191.953125 232.417969 192.414062 228.40625 192.941406 C 220.21875 194.152344 211.777344 194.710938 203.695312 196.167969 C 216.175781 195.042969 228.980469 193.445312 241.488281 191.613281 C 243.878906 190.996094 243.164062 189.851562 242.46875 188.070312 Z M 242.46875 188.070312 " fill-opacity="1" fill-rule="nonzero"></path><path fill="#faad06" d="M 178.75 197.097656 C 176.730469 197.578125 174.6875 197.648438 172.644531 197.90625 C 172.789062 198.292969 172.921875 198.679688 173.078125 199.058594 C 173.273438 199.542969 173.28125 199.53125 173.792969 199.488281 C 175.519531 199.246094 177.515625 199.273438 178.855469 198 C 178.789062 197.714844 178.894531 197.402344 178.75 197.097656 Z M 178.75 197.097656 " fill-opacity="1" fill-rule="nonzero"></path><path fill="#faad06" d="M 112.976562 169.488281 C 112.953125 169.496094 112.921875 169.5 112.910156 169.515625 C 112.914062 169.519531 112.921875 169.519531 112.929688 169.523438 C 112.960938 169.511719 112.976562 169.5 112.976562 169.488281 Z M 112.976562 169.488281 " fill-opacity="1" fill-rule="nonzero"></path><path fill="#faad06" d="M 112.914062 169.515625 C 112.855469 169.496094 112.875 169.585938 112.914062 169.515625 Z M 112.914062 169.515625 " fill-opacity="1" fill-rule="nonzero"></path><path fill="#faad06" d="M 113.117188 172.203125 C 113.003906 172.535156 113.019531 172.878906 113.042969 173.21875 C 113.085938 172.886719 113.144531 172.546875 113.117188 172.203125 Z M 113.117188 172.203125 " fill-opacity="1" fill-rule="nonzero"></path><path fill="#faad06" d="M 201.351562 173.648438 C 201.375 173.640625 201.398438 173.621094 201.417969 173.605469 C 201.386719 173.5625 201.355469 173.515625 201.324219 173.46875 C 201.214844 173.546875 201.277344 173.601562 201.351562 173.648438 Z M 201.351562 173.648438 " fill-opacity="1" fill-rule="nonzero"></path><path fill="#faad06" d="M 201.417969 173.605469 C 201.398438 173.621094 201.375 173.636719 201.351562 173.644531 C 201.351562 173.722656 201.386719 173.777344 201.457031 173.8125 C 201.496094 173.789062 201.523438 173.761719 201.550781 173.730469 C 201.535156 173.660156 201.496094 173.613281 201.417969 173.605469 Z M 201.417969 173.605469 " fill-opacity="1" fill-rule="nonzero"></path><path fill="#faad06" d="M 229.457031 161.433594 C 229.640625 160.984375 228.988281 160.835938 228.667969 160.84375 C 227.867188 160.800781 227.066406 160.78125 226.265625 160.746094 C 226.027344 160.722656 225.25 160.929688 225.320312 161.226562 C 225.351562 161.527344 227.113281 161.316406 227.460938 161.375 C 227.460938 161.398438 227.460938 161.421875 227.460938 161.449219 C 227.824219 161.402344 229.375 161.699219 229.457031 161.433594 Z M 229.457031 161.433594 " fill-opacity="1" fill-rule="nonzero"></path><path fill="#032455" d="M 96.753906 147.328125 C 96.71875 147.339844 96.695312 147.351562 96.683594 147.375 C 96.707031 147.363281 96.730469 147.351562 96.753906 147.332031 C 96.753906 147.335938 96.753906 147.332031 96.753906 147.328125 Z M 96.753906 147.328125 " fill-opacity="1" fill-rule="nonzero"></path><path fill="#032455" d="M 267.757812 181.035156 C 267.753906 181.035156 267.75 181.035156 267.746094 181.035156 C 267.746094 181.042969 267.742188 181.046875 267.742188 181.050781 C 267.742188 181.050781 267.757812 181.035156 267.757812 181.035156 Z M 267.757812 181.035156 " fill-opacity="1" fill-rule="nonzero"></path><g clip-path="url(#9f2ef69618)"><path fill="#032455" d="M 300.949219 200.765625 C 294.851562 196.542969 282.828125 195.484375 275.390625 194.105469 C 275.421875 193.960938 275.425781 193.847656 275.46875 193.75 C 275.796875 192.945312 274.777344 192.140625 274.03125 192.378906 C 272.445312 192.867188 273 195.683594 274.84375 194.777344 C 275 194.707031 275.117188 194.613281 275.320312 194.71875 C 276.171875 195.164062 277 195.644531 277.65625 196.355469 C 279.628906 198.359375 278.324219 200.695312 275.820312 201.8125 C 268.722656 204.585938 260.898438 204.699219 253.410156 205.640625 C 237.75 207.089844 222.019531 207.746094 206.3125 208.28125 C 218.828125 206.558594 231.183594 203.613281 243.871094 203.394531 C 251.199219 203.179688 258.542969 202.953125 265.757812 201.558594 C 268.476562 200.941406 271.558594 200.777344 273.828125 199.03125 C 274.851562 198.171875 274.347656 196.972656 273.375 196.320312 C 270.53125 194.355469 266.738281 194.679688 263.710938 196.0625 C 260.132812 197.726562 256.421875 199.003906 252.59375 199.953125 C 248.765625 201.0625 244.796875 200.792969 240.859375 200.746094 C 236.136719 200.632812 231.445312 201.078125 226.78125 201.808594 C 232.320312 200.410156 238.058594 199.953125 243.714844 199.21875 C 250.398438 198.492188 257.421875 197.714844 263.003906 193.605469 C 263.574219 193.175781 264.242188 192.996094 264.949219 192.925781 C 272.316406 192.386719 267.273438 195.191406 274.679688 190.542969 C 274.820312 190.453125 274.988281 190.347656 275.007812 190.160156 C 275.023438 189.675781 274.554688 189.320312 274.097656 189.515625 C 273.109375 189.945312 272.125 190.371094 271.28125 191.082031 C 270.71875 191.558594 270.066406 191.816406 269.304688 191.390625 C 268.507812 190.945312 267.617188 190.886719 266.714844 190.886719 C 263.796875 190.789062 260.675781 191.082031 257.882812 190.222656 C 258.65625 189.847656 259.542969 189.867188 260.308594 189.417969 C 259.875 188.683594 259.074219 188.277344 258.566406 187.601562 C 257.820312 186.792969 258.605469 185.835938 259.480469 185.609375 C 260.003906 185.464844 260.535156 185.339844 261.085938 185.367188 C 261.234375 185.375 261.386719 185.433594 261.53125 185.347656 C 262.210938 184.960938 263.015625 184.832031 263.65625 184.371094 C 264.160156 184.074219 263.992188 183.789062 263.671875 183.433594 C 263.339844 183.011719 263.34375 182.957031 263.761719 182.589844 C 264.253906 182.15625 264.832031 181.847656 265.375 181.480469 C 266.066406 180.972656 266.929688 181.03125 267.75 181.035156 C 268.074219 178.785156 269.175781 176.871094 270.847656 175.335938 C 271.484375 174.628906 272.421875 174.0625 272.726562 173.125 C 272.84375 172.585938 272.363281 172.191406 272.007812 172.703125 C 270.847656 173.691406 269.773438 174.769531 268.75 175.898438 C 265.339844 180.007812 265.917969 177.296875 263.070312 179.425781 C 262.019531 180.25 261.300781 181.402344 260.289062 182.265625 C 259.945312 182.566406 259.699219 182.558594 259.441406 182.257812 C 259.089844 181.84375 259.035156 181.617188 259.359375 181.304688 C 260.242188 180.324219 261.5 179.34375 261.351562 177.875 C 261.308594 177.433594 261.492188 177.175781 261.890625 176.953125 C 263.789062 175.894531 265.273438 174.398438 266.476562 172.589844 C 268.203125 169.992188 268.78125 166.730469 267.847656 163.742188 C 267.597656 162.832031 266.648438 163.304688 265.984375 163.367188 C 264.621094 163.6875 262.769531 163.726562 262.492188 161.980469 C 262.089844 156.179688 269.636719 149.203125 273.839844 145.765625 C 281.785156 138.90625 290.105469 143.316406 297.039062 136.714844 C 298.863281 135.3125 300.140625 131.589844 297.070312 130.878906 C 293.726562 130.097656 283.289062 136.625 279.515625 138.296875 C 279.332031 138.394531 279.152344 138.558594 278.917969 138.421875 C 281.019531 136.628906 282.746094 133.941406 282.746094 131.097656 C 282.632812 128.6875 280.660156 127.328125 278.378906 128.097656 C 277.054688 128.542969 275.953125 129.355469 274.910156 130.253906 C 269.625 134.851562 264.277344 139.375 259.019531 144.007812 C 257.238281 145.863281 253.101562 147.203125 252.582031 143.589844 C 252.613281 136.390625 264.554688 132.34375 266.011719 123.625 C 262.542969 125.71875 259.058594 127.6875 255.507812 129.546875 C 255.746094 128.933594 256.183594 128.472656 256.53125 127.957031 C 259.195312 124.179688 261.289062 119.667969 265.65625 117.570312 C 269.441406 116.027344 283.167969 103.398438 273.851562 101.800781 C 269.878906 101.78125 267.929688 104.746094 267.210938 108.492188 C 265.597656 116.316406 258.375 119.871094 254.066406 125.945312 C 250.25 131.71875 245.78125 137.019531 240.109375 141.042969 C 238.984375 141.941406 234.1875 144.753906 233.921875 142.101562 C 233.800781 140.828125 235.148438 139.316406 236.542969 139.660156 C 238.265625 139.777344 239.355469 137.542969 238.414062 136.164062 C 237.882812 135.421875 236.945312 134.546875 235.988281 134.628906 C 234.988281 134.945312 234.105469 135.410156 233.582031 136.386719 C 232.125 139.378906 232.082031 142.933594 228.183594 143.867188 C 228.304688 144.183594 228.621094 144.207031 228.871094 144.304688 C 232.71875 145.808594 236.316406 147.96875 239.394531 150.71875 C 243.617188 154.234375 246.933594 158.789062 251.675781 161.65625 C 253.082031 162.632812 254.710938 163.664062 255.363281 165.324219 C 255.671875 166.253906 256.148438 167.117188 256.570312 167.996094 C 257.894531 171.351562 259.328125 175.355469 257.488281 178.777344 C 256.839844 179.910156 256.203125 181.1875 255.160156 181.976562 C 255.699219 178.589844 253.945312 168.640625 248.910156 170.941406 C 245.28125 173.363281 244.839844 179.507812 243.226562 183.332031 C 242.910156 184.6875 242.664062 184.757812 241.320312 184.867188 C 229.324219 186.8125 217.316406 188.6875 205.292969 190.4375 C 205.449219 181.824219 203.089844 176.367188 196.144531 171.078125 C 192.40625 167.414062 186.648438 169.15625 183.792969 172.980469 C 179.242188 178.96875 178.148438 186.835938 178.398438 194.160156 C 185.300781 189.832031 189.164062 187.476562 180.582031 181.59375 C 180.023438 181.222656 180.019531 181.214844 180.316406 180.613281 C 180.882812 179.460938 181.558594 178.382812 182.457031 177.417969 C 183.832031 179.089844 184.949219 180.929688 186.191406 182.695312 C 186.542969 183.21875 187.421875 184.246094 188.101562 184.15625 C 189.613281 183.605469 190.089844 181.796875 190.6875 180.457031 C 191.304688 178.738281 191.785156 176.976562 192.25 175.214844 C 192.433594 174.519531 192.363281 174.351562 191.664062 174.160156 C 189.75 173.601562 187.816406 173.503906 185.921875 174.28125 C 193.347656 170.046875 201.179688 179.03125 201.71875 186.144531 C 203.867188 200.277344 188.667969 210.304688 178.871094 198.003906 C 177.53125 199.277344 175.535156 199.246094 173.808594 199.492188 C 173.296875 199.53125 173.292969 199.546875 173.097656 199.0625 C 172.941406 198.683594 172.804688 198.292969 172.664062 197.910156 C 172.554688 197.828125 172.515625 197.625 172.308594 197.734375 C 172.023438 197.882812 171.710938 197.84375 171.410156 197.851562 C 164.363281 197.632812 157.054688 198.628906 150.160156 196.96875 C 137.726562 193.527344 124.316406 193.5 111.625 195.425781 C 111.730469 195.230469 111.890625 195.214844 112.039062 195.171875 C 114.046875 194.589844 116.101562 194.234375 118.179688 193.988281 C 126.339844 193.171875 134.601562 193.613281 142.699219 194.804688 C 146.910156 195.222656 150.816406 197.285156 155.050781 197.355469 C 159.945312 197.472656 164.839844 197.285156 169.734375 197.257812 C 170.550781 197.257812 171.367188 197.304688 172.171875 197.507812 C 171.332031 196.652344 170.339844 196.546875 169.203125 196.160156 C 171.851562 194.640625 174.371094 192.878906 175.425781 189.914062 C 175.015625 187.871094 173.585938 186.09375 172.214844 184.5625 C 169.253906 181.410156 164.660156 182.710938 160.875 183.070312 C 154.566406 183.992188 148.351562 185.476562 142.160156 186.949219 C 145.289062 187.125 148.445312 186.8125 151.578125 186.714844 C 152.140625 186.652344 152.144531 186.664062 152.410156 187.199219 C 156.125 194.765625 157.054688 193.882812 164.800781 194.175781 C 160.316406 194.414062 155.726562 194 151.304688 193.914062 C 151.105469 194.492188 152.660156 194.8125 152.777344 195.273438 C 149.769531 195.78125 147.222656 191.984375 144.925781 190.453125 C 143.753906 189.585938 142.554688 188.765625 141.195312 188.199219 C 139.976562 187.691406 138.707031 187.445312 137.40625 187.339844 C 132.199219 186.972656 126.96875 187.207031 121.75 187.109375 C 114.972656 186.878906 113.425781 188.34375 110.796875 194.453125 C 110.652344 194.441406 110.582031 194.355469 110.503906 194.285156 C 109.832031 193.679688 109.835938 193.683594 110.398438 192.945312 C 110.898438 192.285156 111.269531 191.542969 111.601562 190.789062 C 113.476562 186.746094 111.617188 186.984375 114.910156 186.800781 C 115.113281 186.457031 112.9375 185.570312 112.613281 185.480469 C 111.382812 184.765625 110.070312 184.183594 108.710938 183.75 C 108.289062 183.613281 107.898438 183.34375 107.535156 183.066406 C 106.890625 184.519531 107.132812 185.265625 108.265625 186.226562 C 108.300781 186.261719 108.382812 186.257812 108.445312 186.269531 C 108.558594 185.871094 108.851562 185.5625 109.023438 185.195312 C 109.058594 185.125 109.132812 185.0625 109.234375 185.105469 C 109.34375 185.15625 109.34375 185.234375 109.277344 185.308594 C 109 185.632812 108.886719 186.082031 108.472656 186.289062 C 108.539062 187.132812 109.085938 187.796875 109.277344 188.605469 C 109.050781 188.628906 109.042969 188.460938 108.996094 188.363281 C 108.546875 187.371094 108.03125 186.417969 107.226562 185.65625 C 106.765625 185.214844 106.691406 184.714844 106.886719 184.109375 C 107.519531 182.277344 107.851562 180.382812 108.105469 178.464844 C 108.296875 177.332031 109.15625 176.582031 110.09375 175.933594 C 110.222656 178.289062 113.113281 178.773438 113.320312 177.007812 C 113.410156 175.171875 113.066406 173.15625 111.753906 171.78125 C 111.613281 172.976562 112.046875 174.066406 112.160156 175.230469 C 112.226562 175.835938 112.238281 175.835938 112.851562 175.933594 C 112.695312 176.542969 111.617188 176.550781 111.265625 176.144531 C 110.941406 175.636719 110.34375 175.828125 110.449219 175.148438 C 110.566406 173.839844 111.117188 172.644531 111.371094 171.363281 C 111.53125 170.46875 111.910156 169.738281 112.898438 169.542969 C 112.902344 169.550781 112.910156 169.558594 112.929688 169.535156 C 112.933594 169.535156 112.941406 169.53125 112.949219 169.53125 C 112.945312 169.527344 112.941406 169.527344 112.9375 169.527344 C 112.949219 169.507812 112.980469 169.507812 113.003906 169.496094 C 113.171875 169.804688 113.070312 170.152344 113.148438 170.472656 C 116.238281 165.417969 122.972656 164.441406 128.183594 162.75 C 133.222656 160.089844 139.113281 159.527344 144.757812 159.222656 C 141.722656 152.476562 140.199219 156.894531 137.097656 153.53125 C 136.128906 152.304688 135.964844 150.726562 135.648438 149.25 C 135.363281 147.84375 134.351562 146.6875 132.964844 146.382812 C 132.296875 146.78125 131.566406 147.105469 131.082031 147.75 C 130.210938 148.902344 130.746094 150.488281 132.128906 150.886719 C 132.398438 150.964844 132.679688 151.011719 132.953125 151.082031 C 135.257812 151.769531 134.945312 154.976562 132.195312 153.855469 C 126.917969 151.378906 122.277344 145.148438 119.4375 140.164062 C 115.570312 132.945312 110.347656 132.097656 108.734375 123.21875 C 108.546875 122.238281 108.390625 121.246094 107.957031 120.332031 C 104.972656 114.875 97.714844 117.585938 102.320312 124.027344 C 104.460938 127.015625 106.855469 129.746094 110.082031 131.644531 C 111.292969 132.351562 112.285156 133.335938 113.085938 134.503906 C 114.632812 136.789062 115.90625 139.121094 117.226562 141.558594 C 114.535156 139.84375 111.929688 138.183594 109.277344 136.496094 C 109.613281 143.300781 118.550781 146.816406 118.027344 152.734375 C 117.742188 154.261719 116.609375 154.988281 115.109375 154.582031 C 113.460938 154.097656 112.433594 152.609375 111.246094 151.46875 C 107.390625 147.792969 103.8125 143.804688 99.804688 140.308594 C 99.304688 139.953125 98.773438 139.660156 98.179688 139.492188 C 97.066406 139.175781 95.835938 139.640625 95.214844 140.605469 C 93.929688 142.835938 95.265625 145.5625 96.773438 147.339844 C 96.78125 147.339844 96.785156 147.335938 96.792969 147.335938 C 96.789062 147.339844 96.78125 147.34375 96.777344 147.34375 C 96.859375 147.46875 96.664062 147.542969 96.707031 147.386719 C 96.488281 147.484375 96.347656 147.265625 96.195312 147.171875 C 94.226562 145.988281 92.269531 144.777344 90.296875 143.59375 C 88 142.335938 85.761719 140.496094 83.066406 140.308594 C 80.988281 140.386719 80.53125 142.71875 81.683594 144.167969 C 85.980469 150.6875 94.328125 147.667969 99.941406 153.355469 C 103.214844 156.335938 109.464844 163.398438 107.925781 168.082031 C 107.453125 169.21875 106.3125 168.878906 105.390625 168.558594 C 104.246094 168.195312 104.066406 168.289062 103.699219 169.441406 C 103.332031 170.652344 103.207031 171.914062 103.117188 173.171875 C 103.078125 173.65625 103.011719 174.066406 102.625 174.449219 C 101.644531 175.359375 102.691406 176.96875 103.921875 176.734375 C 104.128906 176.679688 104.234375 176.730469 104.300781 176.949219 C 104.703125 178.226562 105.503906 179.242188 106.441406 180.171875 C 107.296875 181.023438 107.214844 181.34375 106.105469 181.851562 C 106.03125 181.886719 105.945312 181.910156 105.847656 181.847656 C 105.746094 181.167969 105.714844 180.886719 105.019531 180.617188 C 104.023438 180.1875 103.203125 181.183594 102.863281 182.011719 C 102.3125 183.324219 103.359375 184.335938 104.589844 184.566406 C 104.855469 184.640625 104.921875 184.796875 104.894531 185.050781 C 104.820312 185.789062 106.75 187.554688 107.601562 188.886719 C 107.964844 189.332031 107.273438 189.480469 107.085938 189.8125 C 106.074219 190.953125 107.625 190.457031 108.066406 191.121094 C 106.410156 191.617188 104.386719 191.335938 102.609375 191.371094 C 102.542969 191.367188 102.460938 191.378906 102.414062 191.34375 C 102.097656 191.113281 101.8125 191.257812 101.511719 191.390625 C 101.199219 191.53125 100.945312 191.558594 100.6875 191.183594 C 100.367188 190.710938 99.652344 190.78125 99.3125 191.238281 C 99.015625 191.636719 99.015625 191.636719 98.648438 191.269531 C 98.015625 190.585938 97.378906 191.210938 97.101562 191.863281 C 96.789062 192.21875 97.199219 192.792969 97.632812 192.59375 C 98.296875 192.257812 98.527344 192.878906 98.894531 193.277344 C 99.589844 194.011719 100.375 193.933594 100.902344 193.0625 C 101.007812 192.882812 101.109375 192.800781 101.3125 192.855469 C 102.863281 193.042969 104.484375 193.082031 105.742188 194.148438 C 107.492188 195.589844 105.253906 196.335938 106.054688 196.925781 C 110.21875 200.15625 115.65625 200.328125 120.683594 200.972656 C 125.726562 201.496094 130.789062 201.777344 135.847656 202.019531 C 126.285156 202.234375 116.730469 201.488281 107.191406 201.050781 C 106.953125 201.058594 106.707031 201.042969 106.480469 201.136719 C 106.292969 201.210938 106.230469 201.332031 106.414062 201.464844 C 107.238281 202.03125 108.207031 202.367188 109.171875 202.605469 C 113.871094 203.699219 118.671875 204.296875 123.464844 204.84375 C 142.753906 206.972656 162.160156 207.199219 181.53125 207.894531 C 163.1875 208.683594 144.679688 207.800781 126.308594 206.871094 C 122.117188 206.847656 117.644531 206 113.617188 207.378906 C 112.285156 208.316406 117.894531 208.699219 118.289062 208.738281 C 146.359375 212.679688 174.761719 213.402344 203.066406 212.265625 C 227.992188 210.902344 253.085938 210.28125 277.765625 206.269531 C 280.953125 205.582031 284.535156 205.347656 287.125 203.183594 C 288.792969 201.625 287.9375 199.238281 286.066406 198.28125 C 285.144531 197.699219 284.097656 197.375 283.125 196.902344 C 286.257812 197.554688 293.824219 199.730469 290.320312 203.996094 C 286.175781 207.132812 278.113281 207.835938 272.960938 208.886719 C 260.191406 211.003906 247.289062 212.167969 234.390625 213.164062 C 205.054688 215.75 175.601562 215.308594 146.195312 214.894531 C 144.324219 215 128.675781 214.660156 134.210938 216.730469 C 141.203125 218.824219 148.621094 219.167969 155.851562 219.902344 C 196.742188 223.34375 237.960938 219.453125 277.933594 210.445312 C 281.289062 209.347656 306.121094 206.023438 300.949219 200.765625 Z M 278.914062 138.425781 C 278.914062 138.425781 278.914062 138.433594 278.914062 138.4375 C 278.914062 138.433594 278.914062 138.429688 278.910156 138.425781 C 278.914062 138.425781 278.914062 138.425781 278.914062 138.425781 Z M 249.089844 185.226562 C 248.261719 186.484375 247.273438 185.3125 247.761719 184.824219 C 248.566406 183.933594 249.597656 183.242188 250.183594 182.167969 C 250.269531 181.984375 250.5 181.914062 250.75 181.886719 C 250.1875 183.007812 249.960938 184.28125 249.089844 185.226562 Z M 249.234375 180.558594 C 249.1875 180.59375 249.140625 180.625 249.089844 180.65625 C 249.085938 180.542969 249.132812 180.519531 249.234375 180.558594 Z M 249.238281 180.554688 C 249.179688 180.519531 249.203125 180.402344 249.285156 180.441406 C 249.269531 180.480469 249.253906 180.519531 249.238281 180.554688 Z M 248.285156 181.453125 C 248.285156 181.53125 248.242188 181.566406 248.167969 181.574219 C 248.097656 181.421875 248.179688 181.425781 248.285156 181.453125 Z M 248.308594 181.425781 C 248.460938 181.085938 248.714844 180.847656 249.050781 180.695312 C 248.851562 180.988281 248.636719 181.265625 248.308594 181.425781 Z M 249.421875 180.097656 C 249.425781 180.132812 249.425781 180.167969 249.429688 180.207031 C 249.375 180.199219 249.421875 180.136719 249.421875 180.097656 Z M 249.425781 180.085938 C 249.464844 180.078125 249.5 180.070312 249.539062 180.070312 C 249.570312 180.148438 249.449219 180.148438 249.425781 180.085938 Z M 250.777344 179.941406 C 251.652344 180.304688 251.777344 179.515625 252.148438 179.101562 C 252.867188 180.03125 251.222656 180.851562 250.777344 179.941406 Z M 252.03125 184.066406 C 251.804688 183.617188 251.804688 183.617188 251.855469 183.023438 C 251.984375 183.230469 251.945312 183.46875 252.167969 183.644531 C 252.878906 183.007812 253.25 182.109375 253.875 181.285156 C 253.5 182.445312 252.945312 183.359375 252.03125 184.066406 Z M 251.652344 173.121094 C 253.136719 173.753906 254.652344 178.660156 253.703125 179.921875 C 253.546875 179.792969 253.65625 179.640625 253.675781 179.503906 C 253.832031 178.246094 253.6875 176.949219 252.945312 175.890625 C 252.703125 175.914062 252.664062 176.128906 252.570312 176.285156 C 251.980469 177.207031 251.441406 178.242188 250.484375 178.832031 C 250.292969 178.703125 250.4375 178.480469 250.320312 178.363281 C 250.203125 178.246094 250.214844 178.160156 250.328125 178.042969 C 250.90625 177.449219 251.214844 176.707031 251.425781 175.929688 C 251.585938 175.34375 251.710938 174.746094 251.804688 174.148438 C 251.890625 173.585938 251.683594 173.300781 251.164062 173.097656 C 250.433594 172.78125 249.8125 173.101562 249.164062 173.492188 C 250 172.671875 250.730469 172.574219 251.652344 173.121094 Z M 247.648438 176.089844 C 247.796875 175.550781 248.03125 175.050781 248.417969 174.644531 C 248.59375 174.71875 248.636719 174.855469 248.675781 174.96875 C 248.980469 175.894531 249.417969 176.769531 249.804688 177.660156 C 249.902344 177.890625 250.128906 178.128906 249.832031 178.410156 C 249.769531 178.472656 249.863281 178.699219 249.882812 178.84375 C 250.003906 179.316406 249.515625 179.238281 249.394531 178.890625 C 249.117188 178.242188 248.605469 177.75 248.226562 177.171875 C 248.144531 177.050781 248.042969 176.875 247.921875 176.847656 C 247.402344 176.734375 247.5625 176.382812 247.648438 176.089844 Z M 247.125 181.335938 C 247.15625 180.875 247.121094 180.402344 247.175781 179.949219 C 247.316406 180.570312 247.085938 181.238281 247.414062 181.824219 C 247.726562 181.910156 247.851562 181.480469 248.148438 181.578125 C 247.90625 181.902344 247.585938 182.148438 247.230469 182.449219 C 247.0625 182.054688 247.128906 181.6875 247.125 181.335938 Z M 187.964844 179.402344 C 189.039062 179.789062 189.085938 179.898438 188.613281 180.875 C 188.414062 181.285156 187.855469 182.378906 187.335938 182.324219 C 187.511719 181.363281 187.84375 180.421875 187.964844 179.402344 Z M 186.507812 178.847656 C 186.53125 178.894531 186.5625 178.945312 186.589844 178.996094 C 186.105469 179.699219 185.773438 180.457031 185.6875 181.390625 C 183.984375 178.523438 183.222656 178.835938 186.507812 178.847656 Z M 204.195312 195.964844 C 214.488281 194.65625 224.792969 193.453125 235.078125 192.089844 C 237.464844 191.628906 240.0625 191.820312 242.289062 190.765625 C 243.140625 190.246094 241.40625 190.28125 241.128906 190.246094 C 228.679688 189.4375 216.492188 192.824219 204.328125 194.730469 C 204.445312 194.222656 204.566406 193.707031 204.683594 193.1875 C 204.753906 192.867188 205.039062 192.902344 205.253906 192.867188 C 214.882812 191.382812 224.507812 189.859375 234.160156 188.554688 C 236.683594 188.226562 239.214844 187.953125 241.742188 187.65625 C 242.257812 187.59375 242.289062 187.613281 242.472656 188.078125 C 242.71875 188.964844 243.6875 190.261719 242.773438 191.015625 C 241 192.171875 238.5625 192.011719 236.527344 192.394531 C 225.625 193.625 214.535156 195.355469 203.699219 196.179688 C 203.8125 195.988281 204.015625 195.988281 204.195312 195.964844 Z M 199.53125 202.246094 C 199.546875 202.242188 199.5625 202.242188 199.574219 202.238281 C 199.5625 202.253906 199.550781 202.253906 199.53125 202.246094 Z M 202.597656 204.945312 C 202.015625 204.996094 201.4375 205.109375 200.765625 205.023438 C 203.636719 204.527344 206.347656 204.019531 209.152344 203.351562 C 209.777344 203.15625 211.574219 202.566406 210.464844 201.792969 C 210.289062 201.671875 210.082031 201.585938 209.941406 201.410156 C 209.0625 200.46875 213.070312 201.105469 213.242188 200.222656 C 209.765625 199.308594 206.011719 199.257812 202.410156 199.234375 C 202.21875 199.253906 202.140625 199.519531 202.328125 199.609375 C 202.769531 199.902344 204.019531 200.332031 202.945312 200.785156 C 201.859375 201.3125 200.773438 201.878906 199.605469 202.214844 C 199.546875 202.082031 199.671875 202.042969 199.746094 201.988281 C 200.796875 201.140625 201.53125 200.039062 202.21875 198.902344 C 202.511719 198.375 202.777344 197.847656 203.492188 197.910156 C 209.503906 198.097656 215.453125 199.042969 221.480469 198.871094 C 218.535156 199.90625 215.753906 200.582031 212.679688 201.457031 C 213.410156 201.996094 214.265625 201.898438 214.832031 202.402344 C 214.792969 202.617188 214.605469 202.660156 214.453125 202.730469 C 210.742188 204.410156 206.597656 204.621094 202.597656 204.945312 Z M 202.597656 204.945312 " fill-opacity="1" fill-rule="nonzero"></path></g><path fill="#032455" d="M 128.167969 162.75 C 128.164062 162.746094 128.160156 162.746094 128.15625 162.742188 C 128.152344 162.746094 128.148438 162.746094 128.148438 162.753906 C 128.148438 162.753906 128.167969 162.75 128.167969 162.75 Z M 128.167969 162.75 " fill-opacity="1" fill-rule="nonzero"></path><path fill="#032455" d="M 154.261719 158.191406 C 155.605469 157.828125 156.664062 156.742188 157.878906 156.078125 C 157.878906 156.082031 157.875 156.082031 157.871094 156.082031 C 157.898438 156.394531 157.601562 156.449219 157.441406 156.589844 C 157.160156 156.921875 155.410156 157.871094 156.363281 157.957031 C 161.769531 157.660156 167.160156 156.90625 172.558594 156.578125 C 181.421875 155.84375 190.335938 156.1875 199.222656 156.214844 C 199.722656 156.253906 200.164062 156.070312 200.570312 155.808594 C 204.117188 153.167969 205.914062 148.859375 208.925781 145.6875 C 210.820312 143.367188 213.578125 142.5625 216.421875 142.113281 C 206.734375 141.730469 197.003906 142.28125 187.375 143.351562 C 175.46875 144.386719 165.003906 148.109375 155.679688 155.691406 C 154.820312 156.46875 154.863281 155.726562 154.152344 156.097656 C 152.898438 156.609375 151.542969 157.082031 150.632812 158.132812 C 150.542969 158.234375 150.390625 158.335938 150.503906 158.535156 C 151.753906 158.425781 153.007812 158.320312 154.261719 158.191406 Z M 158.210938 155.976562 C 158.210938 155.976562 158.207031 155.976562 158.203125 155.972656 L 158.210938 155.960938 C 158.210938 155.960938 158.210938 155.976562 158.210938 155.976562 Z M 158.210938 155.976562 " fill-opacity="1" fill-rule="nonzero"></path><g clip-path="url(#e3e8bb5c7a)"><path fill="#032455" d="M 117.464844 212.972656 C 112.910156 209.699219 61.203125 206.101562 87.332031 198.234375 C 86.363281 198.707031 85.296875 199.15625 84.417969 199.820312 C 82.578125 201.246094 83.976562 203.148438 85.488281 203.839844 C 90.546875 206.125 96.175781 206.652344 101.699219 206.347656 C 101.351562 206.078125 101.082031 206.078125 100.839844 206.03125 C 99.253906 205.710938 97.675781 205.347656 96.144531 204.816406 C 94.457031 204.152344 88.613281 202.441406 91.195312 199.953125 C 94.871094 197.1875 99.535156 196.117188 103.921875 195.023438 C 104.253906 194.945312 104.300781 194.777344 104.097656 194.519531 C 103.835938 194.179688 103.367188 194.289062 102.996094 194.300781 C 95.128906 195.269531 87.253906 196.496094 79.628906 198.699219 C 70.792969 200.917969 72.589844 206.007812 79.875 208.859375 C 86.378906 211.355469 93.265625 212.621094 100.136719 213.621094 C 101.578125 213.816406 120.652344 216.269531 117.464844 212.972656 Z M 117.464844 212.972656 " fill-opacity="1" fill-rule="nonzero"></path></g><path fill="#032455" d="M 269.640625 182.277344 C 271.914062 185.824219 276.960938 182.328125 275.253906 178.84375 C 273.757812 175.839844 269.378906 177.15625 269.027344 180.296875 C 268.945312 181.03125 268.308594 181.113281 267.746094 181.050781 C 267.554688 181.425781 267.078125 181.652344 267.148438 182.195312 C 267.773438 182.226562 268.496094 182.359375 269.074219 182.140625 C 269.371094 181.816406 269.496094 182.019531 269.640625 182.277344 Z M 269.640625 182.277344 " fill-opacity="1" fill-rule="nonzero"></path><path fill="#032455" d="M 267.742188 181.050781 C 267.746094 181.050781 267.746094 181.050781 267.75 181.050781 C 267.761719 181.03125 267.753906 181.035156 267.742188 181.050781 Z M 267.742188 181.050781 " fill-opacity="1" fill-rule="nonzero"></path><path fill="#032455" d="M 267.902344 156.011719 C 264.203125 156.925781 264.398438 162.765625 268.367188 162.738281 C 272.902344 162.351562 272.644531 155.1875 267.902344 156.011719 Z M 267.902344 156.011719 " fill-opacity="1" fill-rule="nonzero"></path><path fill="#032455" d="M 280.773438 164.53125 C 280.816406 160.222656 274.550781 160.09375 274.320312 164.4375 C 274.246094 168.605469 280.652344 168.742188 280.773438 164.53125 Z M 280.773438 164.53125 " fill-opacity="1" fill-rule="nonzero"></path><path fill="#032455" d="M 103.671875 196.378906 C 101.53125 196.898438 99.160156 197.566406 97.699219 199.308594 C 95.65625 201.976562 104.667969 203.429688 106.285156 203.316406 C 105.507812 202.683594 104.480469 202.566406 103.648438 202.019531 C 100.609375 200.253906 103.171875 198.828125 105.117188 197.785156 C 106.222656 197.097656 104.414062 196.101562 103.671875 196.378906 Z M 103.671875 196.378906 " fill-opacity="1" fill-rule="nonzero"></path><path fill="#032455" d="M 97.347656 179.453125 C 93.953125 179.96875 94.644531 185.144531 97.96875 184.898438 C 101.511719 184.65625 100.558594 179.03125 97.347656 179.453125 Z M 97.347656 179.453125 " fill-opacity="1" fill-rule="nonzero"></path><path fill="#032455" d="M 101.371094 163.492188 C 100.742188 164.738281 100.886719 166.292969 102 167.199219 C 102.65625 167.761719 103.429688 168.0625 104.285156 167.664062 C 106.773438 166.722656 106.441406 162.609375 103.75 162.265625 C 102.695312 162.097656 101.925781 162.578125 101.371094 163.492188 Z M 101.371094 163.492188 " fill-opacity="1" fill-rule="nonzero"></path><path fill="#032455" d="M 94.449219 166.3125 C 91.640625 167.621094 93.144531 172.191406 96.167969 171.300781 C 99.449219 170.183594 97.765625 164.816406 94.449219 166.3125 Z M 94.449219 166.3125 " fill-opacity="1" fill-rule="nonzero"></path><path fill="#032455" d="M 286.882812 123.558594 C 290.050781 123.480469 290.398438 118.5 287.109375 118.367188 C 283.71875 118.363281 283.328125 123.550781 286.882812 123.558594 Z M 286.882812 123.558594 " fill-opacity="1" fill-rule="nonzero"></path><path fill="#032455" d="M 264.15625 187.199219 C 263.847656 186.988281 263.996094 186.355469 263.601562 186.308594 C 263.210938 186.367188 263.335938 186.867188 263.382812 187.140625 C 263.625 187.855469 263.835938 188.707031 264.484375 189.160156 C 265.316406 189.660156 266.875 190.308594 267.441406 189.171875 C 267.789062 188.203125 269.488281 187.378906 269.046875 186.296875 C 268.855469 185.9375 268.476562 185.710938 268.339844 185.300781 C 268.320312 185.25 268.191406 185.222656 268.105469 185.203125 C 267.300781 185.058594 267.113281 186.035156 266.542969 186.417969 C 266.28125 185.457031 265.960938 185.203125 265.210938 185.3125 C 264.382812 185.4375 264.242188 185.660156 264.617188 186.398438 C 264.859375 186.730469 264.566406 187.542969 264.15625 187.199219 Z M 264.15625 187.199219 " fill-opacity="1" fill-rule="nonzero"></path><path fill="#032455" d="M 91.902344 135.679688 C 94.871094 135.652344 94.683594 131.15625 91.875 131.039062 C 88.949219 131.109375 89.152344 135.585938 91.902344 135.679688 Z M 91.902344 135.679688 " fill-opacity="1" fill-rule="nonzero"></path><path fill="#032455" d="M 285.703125 159.417969 C 285.554688 156.695312 281.8125 156.984375 281.652344 159.472656 C 281.765625 162.277344 285.496094 161.941406 285.703125 159.417969 Z M 285.703125 159.417969 " fill-opacity="1" fill-rule="nonzero"></path><path fill="#032455" d="M 281.375 175.851562 C 283.605469 175.855469 283.832031 172.539062 281.550781 172.40625 C 279.246094 172.359375 278.976562 175.824219 281.375 175.851562 Z M 281.375 175.851562 " fill-opacity="1" fill-rule="nonzero"></path><path fill="#032455" d="M 91.097656 162.574219 C 88.890625 162.769531 89.136719 165.878906 91.214844 165.964844 C 93.324219 165.769531 93.191406 162.734375 91.097656 162.574219 Z M 91.097656 162.574219 " fill-opacity="1" fill-rule="nonzero"></path><path fill="#032455" d="M 240.042969 131.664062 C 242.015625 131.679688 242.167969 128.535156 240.058594 128.5 C 238.152344 128.59375 237.929688 131.585938 240.042969 131.664062 Z M 240.042969 131.664062 " fill-opacity="1" fill-rule="nonzero"></path><path fill="#032455" d="M 271.699219 117.234375 C 269.933594 116.417969 268.398438 119.371094 270.320312 120.199219 C 271.980469 120.972656 273.386719 118.113281 271.699219 117.234375 Z M 271.699219 117.234375 " fill-opacity="1" fill-rule="nonzero"></path><path fill="#032455" d="M 147.636719 153.808594 C 149.773438 153.734375 149.535156 150.738281 147.542969 150.652344 C 145.523438 150.753906 145.753906 153.761719 147.636719 153.808594 Z M 147.636719 153.808594 " fill-opacity="1" fill-rule="nonzero"></path><path fill="#032455" d="M 273.03125 154.457031 C 272.898438 152.339844 270.0625 152.671875 269.980469 154.601562 C 270.101562 156.578125 273.011719 156.417969 273.03125 154.457031 Z M 273.03125 154.457031 " fill-opacity="1" fill-rule="nonzero"></path><g clip-path="url(#4affc6e9e3)"><path fill="#032455" d="M 288.128906 102.585938 C 289.953125 102.546875 290.253906 99.71875 288.3125 99.625 C 286.582031 99.675781 286.203125 102.480469 288.128906 102.585938 Z M 288.128906 102.585938 " fill-opacity="1" fill-rule="nonzero"></path></g><path fill="#032455" d="M 218.9375 141.292969 C 219.199219 141.464844 219.367188 141.71875 219.53125 141.972656 C 221.074219 143.007812 222.246094 140.582031 221.027344 139.589844 C 219.804688 138.394531 218.003906 140.503906 218.9375 141.292969 Z M 218.9375 141.292969 " fill-opacity="1" fill-rule="nonzero"></path><path fill="#032455" d="M 91.5 174.902344 C 89.660156 174.945312 89.761719 177.699219 91.539062 177.699219 C 93.214844 177.625 93.144531 174.988281 91.5 174.902344 Z M 91.5 174.902344 " fill-opacity="1" fill-rule="nonzero"></path><path fill="#032455" d="M 129.972656 143.660156 C 130.675781 143.675781 131.742188 142.347656 131.144531 141.933594 C 131.304688 143.503906 129.222656 142.898438 130.792969 141.363281 C 130.261719 140.535156 129.246094 140.8125 128.859375 141.324219 C 128.097656 142.230469 128.785156 143.738281 129.972656 143.660156 Z M 129.972656 143.660156 " fill-opacity="1" fill-rule="nonzero"></path><path fill="#032455" d="M 106.539062 132.046875 C 106.53125 130.425781 104.230469 130.183594 104.132812 131.910156 C 104.058594 133.644531 106.488281 133.835938 106.539062 132.046875 Z M 106.539062 132.046875 " fill-opacity="1" fill-rule="nonzero"></path><path fill="#032455" d="M 276.488281 185.925781 C 276.507812 187.476562 278.953125 187.484375 278.945312 185.875 C 278.867188 184.171875 276.546875 184.210938 276.488281 185.925781 Z M 276.488281 185.925781 " fill-opacity="1" fill-rule="nonzero"></path><path fill="#032455" d="M 91.878906 117.875 C 93.503906 117.765625 93.167969 115.425781 91.730469 115.398438 C 90.175781 115.445312 90.390625 117.890625 91.878906 117.875 Z M 91.878906 117.875 " fill-opacity="1" fill-rule="nonzero"></path><path fill="#032455" d="M 101.40625 159.667969 C 99.851562 159.644531 99.902344 162.121094 101.371094 162.160156 C 102.933594 162.066406 102.9375 159.828125 101.40625 159.667969 Z M 101.40625 159.667969 " fill-opacity="1" fill-rule="nonzero"></path><path fill="#032455" d="M 252.898438 121.636719 C 254.289062 121.585938 254.320312 119.507812 252.925781 119.445312 C 251.628906 119.503906 251.429688 121.597656 252.898438 121.636719 Z M 252.898438 121.636719 " fill-opacity="1" fill-rule="nonzero"></path><path fill="#032455" d="M 261.734375 186.203125 C 261.324219 186.234375 259.683594 186.636719 260.304688 187.226562 C 260.855469 187.925781 262.78125 188.871094 262.679688 187.265625 C 262.679688 186.609375 262.488281 186.074219 261.734375 186.203125 Z M 261.734375 186.203125 " fill-opacity="1" fill-rule="nonzero"></path><path fill="#032455" d="M 96.351562 191.824219 C 95.605469 191.605469 95.023438 192.644531 94.5 193.050781 C 94.03125 193.457031 94.613281 194.242188 95.167969 194.042969 C 95.695312 193.933594 96.035156 193.472656 96.496094 193.257812 C 96.71875 193.160156 96.800781 193.0625 96.75 192.839844 C 96.714844 192.457031 96.792969 191.992188 96.351562 191.824219 Z M 96.351562 191.824219 " fill-opacity="1" fill-rule="nonzero"></path><path fill="#032455" d="M 93.242188 187.710938 C 94.488281 187.730469 94.472656 185.65625 93.285156 185.625 C 91.949219 185.667969 91.976562 187.566406 93.242188 187.710938 Z M 93.242188 187.710938 " fill-opacity="1" fill-rule="nonzero"></path><path fill="#032455" d="M 292.574219 149.316406 C 292.710938 148.027344 290.957031 147.816406 290.789062 149.105469 C 290.675781 150.300781 292.390625 150.496094 292.574219 149.316406 Z M 292.574219 149.316406 " fill-opacity="1" fill-rule="nonzero"></path><path fill="#032455" d="M 119.945312 134.785156 C 121.070312 134.664062 121.117188 132.957031 119.933594 132.878906 C 118.761719 132.949219 118.9375 134.71875 119.945312 134.785156 Z M 119.945312 134.785156 " fill-opacity="1" fill-rule="nonzero"></path><path fill="#032455" d="M 97.574219 185.960938 C 97.488281 187.074219 99.054688 187.140625 99.027344 185.988281 C 99.097656 184.757812 97.613281 185.007812 97.574219 185.960938 Z M 97.574219 185.960938 " fill-opacity="1" fill-rule="nonzero"></path><path fill="#032455" d="M 106.035156 199.710938 C 107.113281 199.722656 107.433594 198.210938 106.21875 198.097656 C 105.25 198.128906 104.804688 199.664062 106.035156 199.710938 Z M 106.035156 199.710938 " fill-opacity="1" fill-rule="nonzero"></path><path fill="#032455" d="M 85.351562 155.847656 C 86.222656 155.828125 86.3125 154.457031 85.378906 154.414062 C 84.488281 154.324219 84.5 155.882812 85.351562 155.847656 Z M 85.351562 155.847656 " fill-opacity="1" fill-rule="nonzero"></path><path fill="#032455" d="M 282.128906 150.902344 C 283.015625 150.9375 283.035156 149.503906 282.175781 149.460938 C 281.335938 149.535156 281.273438 150.777344 282.128906 150.902344 Z M 282.128906 150.902344 " fill-opacity="1" fill-rule="nonzero"></path><path fill="#032455" d="M 93.203125 156.125 C 92.621094 156.097656 92.617188 157.285156 93.214844 157.242188 C 93.835938 157.199219 93.808594 156.179688 93.203125 156.125 Z M 93.203125 156.125 " fill-opacity="1" fill-rule="nonzero"></path><path fill="#032455" d="M 237.097656 125.402344 C 237.6875 125.304688 237.757812 124.316406 237.070312 124.316406 C 236.535156 124.320312 236.507812 125.445312 237.097656 125.402344 Z M 237.097656 125.402344 " fill-opacity="1" fill-rule="nonzero"></path><path fill="#032455" d="M 277.851562 113.199219 C 278.484375 113.179688 278.386719 112.132812 277.816406 112.140625 C 277.308594 112.15625 277.195312 113.277344 277.851562 113.199219 Z M 277.851562 113.199219 " fill-opacity="1" fill-rule="nonzero"></path><path fill="#032455" d="M 279.707031 126.875 C 280.3125 127.003906 280.683594 126.035156 279.980469 125.886719 C 279.589844 125.746094 279.164062 126.742188 279.707031 126.875 Z M 279.707031 126.875 " fill-opacity="1" fill-rule="nonzero"></path><path fill="#032455" d="M 292.421875 156.488281 C 292.964844 156.417969 293.003906 155.496094 292.382812 155.476562 C 291.871094 155.53125 291.878906 156.496094 292.421875 156.488281 Z M 292.421875 156.488281 " fill-opacity="1" fill-rule="nonzero"></path><path fill="#032455" d="M 132.71875 138.425781 C 133.304688 138.402344 133.199219 137.484375 132.652344 137.523438 C 132.203125 137.535156 132.15625 138.503906 132.71875 138.425781 Z M 132.71875 138.425781 " fill-opacity="1" fill-rule="nonzero"></path><path fill="#032455" d="M 278.617188 148.296875 C 278.609375 147.722656 277.777344 147.90625 277.851562 148.378906 C 277.847656 149.015625 278.609375 148.9375 278.617188 148.296875 Z M 278.617188 148.296875 " fill-opacity="1" fill-rule="nonzero"></path><path fill="#032455" d="M 99.960938 127.210938 C 100.484375 127.152344 100.289062 126.3125 99.816406 126.367188 C 99.300781 126.378906 99.625 127.261719 99.960938 127.210938 Z M 99.960938 127.210938 " fill-opacity="1" fill-rule="nonzero"></path><path fill="#032455" d="M 97.441406 138.5625 C 98.023438 138.511719 97.867188 137.738281 97.398438 137.714844 C 96.859375 137.730469 96.972656 138.597656 97.441406 138.5625 Z M 97.441406 138.5625 " fill-opacity="1" fill-rule="nonzero"></path><path fill="#032455" d="M 267.042969 176.011719 C 266.496094 175.972656 266.789062 176.542969 266.910156 176.855469 C 267.144531 176.8125 267.21875 176.671875 267.300781 176.558594 C 267.632812 176.246094 267.511719 175.960938 267.042969 176.011719 Z M 267.042969 176.011719 " fill-opacity="1" fill-rule="nonzero"></path><path fill="#032455" d="M 84.4375 160.203125 C 83.96875 160.296875 84.167969 161.035156 84.542969 161.042969 C 85.019531 160.917969 84.894531 160.191406 84.4375 160.203125 Z M 84.4375 160.203125 " fill-opacity="1" fill-rule="nonzero"></path><path fill="#032455" d="M 279.953125 110.925781 C 280.363281 110.886719 280.558594 110.152344 280.050781 110.136719 C 279.632812 110.089844 279.582031 110.816406 279.953125 110.925781 Z M 279.953125 110.925781 " fill-opacity="1" fill-rule="nonzero"></path><path fill="#032455" d="M 276.136719 148.8125 C 276.203125 148.339844 275.414062 148.261719 275.449219 148.75 C 275.417969 149.28125 276.113281 149.371094 276.136719 148.8125 Z M 276.136719 148.8125 " fill-opacity="1" fill-rule="nonzero"></path><path fill="#032455" d="M 97.464844 155.976562 C 97.890625 155.875 97.785156 155.300781 97.398438 155.28125 C 97.011719 155.347656 97.132812 155.917969 97.464844 155.976562 Z M 97.464844 155.976562 " fill-opacity="1" fill-rule="nonzero"></path><path fill="#032455" d="M 97.886719 125.039062 C 98.222656 125.058594 98.242188 124.429688 97.898438 124.433594 C 97.617188 124.402344 97.601562 125.042969 97.886719 125.039062 Z M 97.886719 125.039062 " fill-opacity="1" fill-rule="nonzero"></path><path fill="#032455" d="M 131.082031 141.730469 C 131.097656 141.78125 131.113281 141.835938 131.128906 141.882812 C 131.144531 141.824219 131.199219 141.757812 131.082031 141.730469 Z M 131.082031 141.730469 " fill-opacity="1" fill-rule="nonzero"></path><path fill="#032455" d="M 131.128906 141.882812 C 131.125 141.894531 131.125 141.910156 131.125 141.921875 C 131.132812 141.925781 131.140625 141.929688 131.144531 141.933594 C 131.140625 141.914062 131.132812 141.898438 131.128906 141.882812 Z M 131.128906 141.882812 " fill-opacity="1" fill-rule="nonzero"></path><path fill="#032455" d="M 129.167969 168.453125 C 124.40625 168.738281 119.621094 169.179688 114.949219 170.191406 C 113.019531 170.625 112.960938 172.234375 113.132812 173.894531 C 113.578125 176.460938 113.296875 180.0625 116.421875 180.957031 C 120.660156 181.820312 125.003906 182.460938 129.335938 182.179688 C 133.3125 181.820312 137.414062 181.636719 141.222656 180.371094 C 143.265625 179.53125 144.511719 177.515625 145.539062 175.503906 C 141.5625 175.71875 137.558594 175.878906 133.585938 176.261719 C 127.199219 176.542969 120.785156 176.265625 114.402344 176.191406 C 114.144531 176.132812 114.152344 175.679688 114.457031 175.71875 C 115.980469 175.679688 117.503906 175.601562 119.023438 175.582031 C 127.796875 175.554688 136.558594 175.359375 145.3125 174.816406 C 145.753906 174.816406 145.984375 174.632812 146.167969 174.269531 C 146.808594 172.839844 147.882812 170.605469 146.597656 169.273438 C 146.074219 168.9375 145.5 168.777344 144.878906 168.742188 C 139.648438 168.375 134.402344 168.253906 129.167969 168.453125 Z M 129.167969 168.453125 " fill-opacity="1" fill-rule="nonzero"></path><path fill="#032455" d="M 146.589844 169.277344 C 146.589844 169.277344 146.59375 169.28125 146.59375 169.28125 C 146.59375 169.28125 146.589844 169.277344 146.589844 169.277344 Z M 146.589844 169.277344 " fill-opacity="1" fill-rule="nonzero"></path><path fill="#032455" d="M 210.257812 147.726562 C 209.480469 148.335938 202.613281 159.707031 204.5 159.398438 C 205.5 159.382812 206.492188 159.21875 207.492188 159.226562 C 207.777344 159.230469 207.992188 159.277344 208.15625 159.53125 C 208.902344 160.5625 210.3125 160.421875 211.445312 160.621094 C 211.351562 160 210.769531 159.652344 210.640625 158.984375 C 213.445312 158.988281 216.179688 158.972656 218.96875 158.859375 C 220.550781 158.882812 220.363281 157.855469 221.425781 157.910156 C 229.546875 157.972656 237.628906 158.78125 245.671875 159.734375 C 240.5625 152.476562 233.199219 146.261719 224.40625 144.167969 C 219.480469 142.90625 213.363281 143.113281 210.257812 147.726562 Z M 208.792969 157.390625 C 208.78125 157.375 208.78125 157.355469 208.773438 157.339844 C 208.855469 157.289062 208.878906 157.511719 208.792969 157.390625 Z M 212.519531 156.0625 C 212.503906 156.054688 212.488281 156.046875 212.476562 156.039062 C 212.511719 156.03125 212.539062 156.035156 212.570312 156.058594 C 212.550781 156.058594 212.535156 156.0625 212.519531 156.0625 Z M 234.386719 157.742188 C 230.089844 157.234375 225.757812 157.128906 221.433594 156.917969 C 221.277344 156.910156 221.03125 156.980469 221.042969 156.710938 C 221.058594 156.355469 220.902344 156.359375 220.613281 156.386719 C 219.859375 156.460938 219.101562 156.394531 218.335938 156.332031 C 218.972656 156.175781 219.652344 156.335938 220.289062 156.015625 C 220.15625 155.746094 219.914062 155.816406 219.726562 155.816406 C 218.921875 155.820312 218.117188 155.84375 217.3125 155.851562 C 215.765625 155.867188 214.375 155.84375 212.796875 155.972656 C 213.289062 155.730469 213.742188 155.710938 214.1875 155.722656 C 215.691406 155.75 217.183594 155.710938 218.652344 155.34375 C 219.15625 155.148438 220.175781 155.367188 220.480469 154.964844 C 218.625 155.011719 216.847656 155.414062 215.046875 155.28125 C 216.757812 155.15625 218.425781 154.703125 220.140625 154.632812 C 220.257812 154.75 220.394531 154.59375 220.238281 154.519531 C 219.628906 152.816406 217.464844 152.871094 215.96875 152.617188 C 212.34375 152.230469 207.050781 151.675781 208.675781 157.117188 C 208.414062 156.945312 208.351562 156.675781 208.289062 156.414062 C 207.75 154.234375 209.113281 152.285156 211.164062 152.207031 C 213.585938 152.070312 215.980469 152.253906 218.355469 152.769531 C 219.847656 153.097656 220.589844 154.101562 220.972656 155.457031 C 221.066406 155.785156 221.1875 155.84375 221.492188 155.863281 C 226.085938 156.183594 230.699219 156.636719 235.167969 157.78125 C 234.855469 157.808594 234.625 157.777344 234.386719 157.742188 Z M 237.667969 151.890625 C 239.300781 153.660156 241.175781 155.304688 242.726562 157.09375 C 242.054688 157.015625 241.429688 156.929688 240.804688 156.867188 C 239.453125 156.824219 239.09375 155.4375 238.609375 154.417969 C 238.15625 153.339844 237.652344 152.292969 236.785156 151.394531 C 237.242188 151.347656 237.445312 151.671875 237.667969 151.890625 Z M 223.507812 150.242188 C 227.839844 151.351562 232.117188 152.390625 236.449219 153.53125 C 236.292969 152.472656 235.792969 151.617188 235.609375 150.664062 C 236.921875 152.710938 238.175781 154.722656 238.773438 157.128906 C 238.636719 157.085938 238.570312 157.082031 238.566406 157.0625 C 238.449219 156.464844 238.046875 156.15625 237.507812 155.941406 C 229.082031 153.007812 220.441406 150.695312 211.835938 148.34375 C 211.675781 148.300781 211.328125 148.378906 211.386719 148.023438 C 211.433594 147.734375 211.773438 147.488281 212.046875 147.511719 C 215.875 148.363281 219.699219 149.289062 223.507812 150.242188 Z M 223.507812 150.242188 " fill-opacity="1" fill-rule="nonzero"></path><path fill="#032455" d="M 149.539062 177.40625 C 152.140625 178.09375 154.84375 178.398438 157.417969 177.378906 C 161.738281 175.703125 166.328125 174.882812 170.667969 173.265625 C 173.914062 171.992188 176.84375 169.5625 177.957031 166.183594 C 178.492188 160.21875 153.535156 168.160156 150.109375 169.382812 C 150.707031 169.484375 151.132812 169.148438 151.625 169.226562 C 152.140625 172.027344 150.316406 174.410156 149.296875 176.871094 C 149.113281 177.265625 149.128906 177.296875 149.539062 177.40625 Z M 161.195312 174.929688 L 161.222656 174.933594 C 161.21875 174.941406 161.214844 174.945312 161.210938 174.953125 Z M 161.230469 174.917969 C 161.238281 174.8125 161.246094 174.703125 161.253906 174.601562 C 161.378906 174.71875 161.296875 174.816406 161.230469 174.917969 Z M 164.273438 170.757812 C 163.402344 171.886719 162.792969 173.339844 161.71875 174.269531 C 161.722656 174.273438 161.726562 174.28125 161.730469 174.285156 C 161.726562 174.28125 161.722656 174.277344 161.71875 174.269531 C 161.636719 174.488281 161.566406 174.71875 161.25 174.59375 C 161.480469 174.59375 161.480469 174.191406 161.695312 174.242188 C 161.585938 174.101562 161.753906 174.011719 161.8125 173.914062 C 162.339844 173.007812 162.808594 172.15625 163.113281 171.136719 C 161.988281 171.074219 160.96875 171.320312 159.914062 171.519531 C 160.011719 172.011719 160.320312 172.40625 159.871094 172.792969 C 159.273438 173.429688 158.796875 174.152344 158.464844 174.964844 C 158.332031 175.390625 157.996094 175.792969 157.617188 175.300781 C 157 174.609375 157.03125 173.757812 156.84375 172.871094 C 156.058594 173.410156 155.984375 174.210938 155.59375 174.988281 C 155.410156 174.894531 155.457031 174.753906 155.484375 174.648438 C 155.753906 173.382812 156.292969 171.941406 157.707031 171.648438 C 158.484375 171.433594 159.289062 171.355469 160.078125 171.210938 C 161.484375 171.023438 162.90625 170.59375 164.308594 170.550781 C 164.296875 170.632812 164.304688 170.710938 164.273438 170.757812 Z M 166.660156 173.453125 C 165.917969 174.089844 164.859375 171.703125 164.871094 171.226562 C 164.921875 169.207031 167.5625 168.554688 169.121094 169.253906 C 169.460938 169.398438 169.515625 169.519531 169.277344 169.769531 C 168.179688 170.839844 167.726562 172.371094 166.660156 173.453125 Z M 169.261719 172.523438 C 169.316406 172.5 169.367188 172.472656 169.414062 172.445312 C 169.433594 172.585938 169.355469 172.570312 169.261719 172.523438 Z M 173.546875 167.433594 C 173.070312 167.683594 172.859375 168.125 172.636719 168.578125 C 171.941406 170 171.019531 171.253906 169.785156 172.265625 C 169.6875 172.347656 169.609375 172.527344 169.429688 172.433594 C 169.535156 172.089844 169.835938 171.886719 170.054688 171.628906 C 170.757812 170.808594 171.285156 169.894531 171.621094 168.867188 C 172.175781 167.367188 169.9375 168.332031 169.203125 168.214844 C 170.609375 167.664062 172.0625 167.363281 173.589844 167.207031 C 173.570312 167.320312 173.578125 167.414062 173.546875 167.433594 Z M 150.605469 176.042969 C 153.027344 169.363281 157.027344 168.917969 163.171875 167.160156 C 165.976562 166.390625 168.800781 165.6875 171.644531 165.078125 C 172.398438 164.917969 173.164062 164.785156 173.960938 164.996094 C 172.941406 165.585938 171.921875 166.148438 170.773438 166.4375 C 165.402344 168.097656 159.460938 168.75 154.65625 171.789062 C 153.148438 173.015625 152.089844 174.679688 151.0625 176.308594 C 150.949219 176.492188 150.882812 176.863281 150.574219 176.714844 C 150.226562 176.539062 150.519531 176.242188 150.605469 176.042969 Z M 150.605469 176.042969 " fill-opacity="1" fill-rule="nonzero"></path><path fill="#032455" d="M 161.695312 174.242188 C 161.703125 174.25 161.714844 174.261719 161.71875 174.269531 C 161.71875 174.269531 161.71875 174.269531 161.71875 174.265625 C 161.714844 174.257812 161.703125 174.25 161.695312 174.242188 Z M 161.695312 174.242188 " fill-opacity="1" fill-rule="nonzero"></path><path fill="#032455" d="M 226.097656 162.25 C 226.101562 162.242188 226.105469 162.238281 226.109375 162.230469 C 226.101562 162.234375 226.09375 162.238281 226.089844 162.238281 C 226.089844 162.242188 226.097656 162.25 226.097656 162.25 Z M 226.097656 162.25 " fill-opacity="1" fill-rule="nonzero"></path><path fill="#032455" d="M 227.464844 162.335938 C 228.277344 162.484375 229.847656 162.6875 229.816406 161.484375 C 229.820312 161.167969 229.542969 161.0625 229.421875 160.84375 C 228.734375 160.472656 225.835938 160.0625 225.113281 160.355469 C 225.117188 160.363281 225.117188 160.371094 225.117188 160.371094 C 224.457031 161.964844 226.1875 161.703125 226.105469 162.234375 C 226.417969 162.050781 226.523438 162.078125 226.683594 162.378906 C 226.683594 162.378906 226.679688 162.375 226.679688 162.375 C 226.933594 162.097656 227.210938 162.289062 227.464844 162.335938 Z M 225.644531 161.375 C 225.296875 161.429688 225.167969 161.078125 225.527344 160.957031 C 225.753906 160.824219 225.988281 160.734375 226.261719 160.746094 C 227.0625 160.78125 227.863281 160.800781 228.664062 160.84375 C 228.898438 160.855469 229.144531 160.875 229.34375 161.03125 C 229.617188 161.21875 229.46875 161.644531 229.121094 161.546875 C 228.566406 161.496094 228.011719 161.480469 227.457031 161.453125 C 227.457031 161.425781 227.457031 161.402344 227.457031 161.375 C 226.855469 161.375 226.25 161.378906 225.644531 161.375 Z M 225.644531 161.375 " fill-opacity="1" fill-rule="nonzero"></path><path fill="#032455" d="M 225.082031 160.339844 C 225.082031 160.339844 225.113281 160.355469 225.113281 160.355469 C 225.109375 160.335938 225.097656 160.308594 225.097656 160.308594 Z M 225.082031 160.339844 " fill-opacity="1" fill-rule="nonzero"></path><path fill="#032455" d="M 241.863281 161.207031 C 242.664062 160.882812 243.441406 161.257812 244.214844 161.265625 C 243.472656 161.003906 242.683594 160.734375 241.886719 160.949219 C 241.035156 161.15625 241.042969 162.113281 241.859375 162.335938 C 242.671875 162.570312 243.511719 162.679688 244.355469 162.765625 C 244.699219 162.820312 245.207031 162.691406 245.148438 162.253906 C 245.148438 161.886719 244.164062 161.949219 243.875 161.867188 C 243.109375 161.792969 242.332031 161.753906 241.585938 161.570312 C 241.585938 161.339844 241.722656 161.265625 241.863281 161.207031 Z M 241.863281 161.207031 " fill-opacity="1" fill-rule="nonzero"></path><path fill="#032455" d="M 201.226562 186.984375 C 200.820312 182.972656 199.261719 179.523438 196.355469 176.691406 C 195.375 177.96875 194.648438 179.4375 193.738281 180.773438 C 192.527344 182.527344 191.433594 184.34375 190.625 186.3125 C 190.597656 186.359375 190.660156 186.484375 190.714844 186.542969 C 190.957031 186.804688 190.84375 186.054688 191.359375 186.371094 C 192.570312 186.988281 193.878906 187.164062 195.214844 187.195312 C 197.195312 187.1875 199.304688 187.339844 201.226562 186.984375 Z M 194.398438 186.203125 C 193.644531 186.128906 192.890625 186.0625 192.171875 185.796875 C 191.707031 185.628906 191.699219 185.605469 191.859375 185.148438 C 192.144531 184.355469 192.484375 183.578125 192.898438 182.851562 C 193.042969 182.597656 192.988281 182.230469 193.371094 182.070312 C 193.621094 182.460938 195.65625 186.628906 194.398438 186.203125 Z M 194.398438 186.203125 " fill-opacity="1" fill-rule="nonzero"></path><path fill="#032455" d="M 180.65625 198.839844 C 183.167969 201.21875 186.433594 202.558594 189.910156 202.347656 C 190.464844 202.316406 190.472656 202.3125 190.433594 201.726562 C 190.40625 201.273438 190.359375 200.820312 190.316406 200.363281 C 189.980469 197.808594 190.175781 194.859375 188.335938 192.828125 C 187.5625 192.039062 186.917969 192 185.980469 192.613281 C 183.757812 194.277344 182.378906 196.644531 180.65625 198.839844 Z M 187.773438 197.851562 C 187.882812 198.1875 187.609375 198.199219 187.414062 198.261719 C 187.203125 198.332031 187.109375 198.238281 187.058594 198.019531 C 186.847656 197.042969 186.699219 196.058594 186.378906 195.09375 C 187.007812 195.929688 187.457031 196.855469 187.773438 197.851562 Z M 185.230469 198.398438 C 184.210938 198.234375 183.328125 197.945312 182.421875 197.75 C 182.203125 197.703125 182.164062 197.550781 182.28125 197.429688 C 182.992188 196.679688 183.539062 195.792969 184.277344 194.945312 C 184.589844 196.125 184.84375 197.230469 185.230469 198.398438 Z M 185.230469 198.398438 " fill-opacity="1" fill-rule="nonzero"></path><path fill="#032455" d="M 192.160156 194.859375 C 192.976562 196.925781 193.933594 198.933594 194.734375 201.09375 C 197.089844 198.882812 199.265625 196.617188 200.222656 193.4375 C 200.386719 192.949219 200.550781 192.457031 200.894531 192.078125 C 199.644531 191.347656 198.085938 191.117188 196.6875 190.695312 C 195.226562 190.398438 193.519531 189.777344 192.105469 190.5 C 191.84375 190.683594 191.605469 190.902344 191.234375 190.953125 C 191.339844 191.140625 191.464844 191.246094 191.464844 191.4375 C 191.46875 192.515625 191.804688 193.953125 192.160156 194.859375 Z M 192.59375 192.113281 C 193.199219 192.164062 193.789062 192.316406 194.371094 192.488281 C 194.820312 192.617188 194.875 192.75 194.742188 193.21875 C 194.40625 194.386719 193.800781 195.4375 193.277344 196.707031 C 192.667969 195.320312 192.21875 194.058594 192.003906 192.726562 C 191.917969 192.179688 192.039062 192.066406 192.59375 192.113281 Z M 192.59375 192.113281 " fill-opacity="1" fill-rule="nonzero"></path><path fill="#032455" d="M 189.507812 186.320312 C 188.261719 185.621094 187.035156 187.222656 187.058594 188.347656 C 187.054688 189.046875 187.378906 189.835938 187.824219 190.296875 C 189.703125 191.730469 192.488281 187.6875 189.507812 186.320312 Z M 189.507812 186.320312 " fill-opacity="1" fill-rule="nonzero"></path><path fill="#032455" d="M 185.855469 191.214844 C 187.511719 190.527344 187.105469 191.640625 188.070312 191.492188 C 188.300781 191.421875 188.5 191.453125 188.648438 191.660156 C 189.140625 192.34375 189.78125 192.914062 190.207031 193.65625 C 190.328125 193.867188 190.429688 194.117188 190.746094 194.257812 C 190.679688 193.046875 190.289062 191.96875 190.046875 190.867188 C 187.269531 192.128906 187.320312 190.523438 186.414062 188.328125 C 185.957031 189.644531 184.976562 190.496094 184.636719 191.769531 C 185.042969 191.578125 185.433594 191.355469 185.855469 191.214844 Z M 185.855469 191.214844 " fill-opacity="1" fill-rule="nonzero"></path><path fill="#032455" d="M 185.457031 184.175781 C 186.089844 185.21875 186.011719 186.410156 186.015625 187.582031 C 186.019531 187.746094 185.964844 187.9375 186.152344 188.050781 C 186.339844 188.035156 186.382812 187.871094 186.457031 187.746094 C 186.960938 186.902344 187.511719 186.105469 188.308594 185.496094 C 188.359375 185.457031 188.378906 185.410156 188.347656 185.351562 C 187.15625 184.96875 186.15625 184.273438 185.152344 183.304688 C 185.214844 183.730469 185.363281 183.941406 185.457031 184.175781 Z M 185.457031 184.175781 " fill-opacity="1" fill-rule="nonzero"></path><path fill="#032455" d="M 190.453125 186.136719 C 190.449219 186.140625 190.449219 186.144531 190.449219 186.144531 C 190.449219 186.203125 190.476562 186.25 190.542969 186.246094 C 190.605469 186.195312 190.539062 186.082031 190.453125 186.136719 C 190.15625 184.851562 191.144531 183.664062 190.929688 182.394531 C 190.695312 182.378906 190.679688 182.523438 190.625 182.636719 C 190.320312 183.203125 189.925781 183.851562 189.351562 184.144531 C 188.84375 184.140625 188.460938 184.53125 187.957031 184.480469 C 187.996094 184.875 188.375 185.011719 188.351562 185.339844 C 189.15625 185.339844 189.804688 185.726562 190.449219 186.144531 Z M 190.453125 186.136719 " fill-opacity="1" fill-rule="nonzero"></path><path fill="#032455" d="M 188.351562 185.339844 C 188.351562 185.339844 188.34375 185.339844 188.339844 185.339844 C 188.34375 185.34375 188.34375 185.347656 188.347656 185.355469 C 188.351562 185.355469 188.351562 185.359375 188.351562 185.359375 C 188.351562 185.351562 188.351562 185.347656 188.351562 185.339844 Z M 188.34375 185.347656 C 188.34375 185.347656 188.347656 185.347656 188.34375 185.347656 Z M 188.34375 185.347656 " fill-opacity="1" fill-rule="nonzero"></path><path fill="#032455" d="M 191.238281 189.398438 C 192.308594 189.101562 193.398438 189.128906 194.472656 188.644531 C 193.398438 188.050781 192.230469 187.996094 191.175781 187.359375 C 191.398438 188.105469 191.402344 188.742188 191.238281 189.398438 Z M 191.238281 189.398438 " fill-opacity="1" fill-rule="nonzero"></path><path fill="#032455" d="M 191.011719 190.777344 C 191.273438 190.398438 191.273438 190.398438 190.996094 189.984375 C 190.792969 190.257812 191 190.515625 191.011719 190.777344 Z M 191.011719 190.777344 " fill-opacity="1" fill-rule="nonzero"></path><path fill="#032455" d="M 158.84375 172.136719 C 158.300781 171.949219 158.328125 172.859375 158.175781 173.289062 C 158.519531 173.09375 159.269531 172.339844 158.84375 172.136719 Z M 158.84375 172.136719 " fill-opacity="1" fill-rule="nonzero"></path><path fill="#032455" d="M 157.964844 174.78125 C 158.078125 174.546875 158.308594 174.375 158.359375 174.054688 C 157.925781 174.175781 157.9375 174.476562 157.964844 174.78125 Z M 157.964844 174.78125 " fill-opacity="1" fill-rule="nonzero"></path><path fill="#032455" d="M 157.859375 174.875 C 157.890625 174.855469 157.917969 174.835938 157.945312 174.8125 C 157.894531 174.789062 157.839844 174.773438 157.859375 174.875 Z M 157.859375 174.875 " fill-opacity="1" fill-rule="nonzero"></path><path fill="#032455" d="M 157.945312 174.8125 C 157.953125 174.816406 157.960938 174.816406 157.96875 174.820312 C 157.96875 174.808594 157.964844 174.796875 157.964844 174.78125 C 157.957031 174.792969 157.957031 174.804688 157.945312 174.8125 Z M 157.945312 174.8125 " fill-opacity="1" fill-rule="nonzero"></path><path fill="#032455" d="M 167.683594 169.648438 C 166.234375 168.996094 166.292969 172.117188 166.347656 173.007812 C 166.617188 172.910156 166.65625 172.785156 166.703125 172.664062 C 167.03125 171.820312 167.367188 170.976562 167.691406 170.128906 C 167.75 169.972656 167.851562 169.796875 167.683594 169.648438 Z M 167.683594 169.648438 " fill-opacity="1" fill-rule="nonzero"></path><g fill="#032455" fill-opacity="1"><g transform="translate(65.519531, 256.856263)"><g><path d="M 61.65625 -33.15625 L 30.34375 -33.15625 L 30.34375 -15.015625 L 43.515625 -15.015625 L 43.515625 -6.875 L 22.21875 -6.875 L 22.21875 -33.15625 L 4.0625 -33.15625 L 4.0625 -28.125 L 17.21875 -28.125 L 17.21875 -1.84375 L 48.5 -1.84375 L 48.5 -20.03125 L 35.375 -20.03125 L 35.375 -28.125 L 56.625 -28.125 L 56.625 -15.015625 L 61.65625 -15.015625 Z M 9.09375 -20.03125 L 4.0625 -20.03125 L 4.0625 -15.015625 L 9.09375 -15.015625 Z M 9.09375 -6.875 L 4.0625 -6.875 L 4.0625 -1.84375 L 9.09375 -1.84375 Z M 9.09375 -6.875 "></path></g></g></g><g fill="#032455" fill-opacity="1"><g transform="translate(129.005043, 256.856263)"><g><path d="M 37.625 -33.15625 L 32.5625 -33.15625 L 32.5625 -6.875 L 24.46875 -6.875 L 24.46875 -33.15625 L 19.4375 -33.15625 L 19.4375 -6.875 L 11.3125 -6.875 L 11.3125 -33.15625 L 6.28125 -33.15625 L 6.28125 -20 L -4.0625 -20 L -4.0625 -15.015625 L 6.28125 -15.015625 L 6.28125 -1.84375 L 37.625 -1.84375 Z M 37.625 -33.15625 "></path></g></g></g><g fill="#032455" fill-opacity="1"><g transform="translate(168.471009, 256.856263)"><g><path d="M 63.921875 -28.125 L 63.921875 -33.15625 L 19.4375 -33.15625 L 19.4375 -15.015625 L 58.890625 -15.015625 L 58.890625 -6.875 L 11.3125 -6.875 L 11.3125 -20.03125 L -4.0625 -20.03125 L -4.0625 -15.015625 L 6.28125 -15.015625 L 6.28125 -1.84375 L 63.921875 -1.84375 L 63.921875 -20.03125 L 24.46875 -20.03125 L 24.46875 -28.125 Z M 63.921875 -28.125 "></path></g></g></g><g fill="#032455" fill-opacity="1"><g transform="translate(236.427853, 256.856263)"><g><path d="M 9.0625 -33.15625 L 4.0625 -33.15625 L 4.0625 -1.84375 L 22.25 -1.84375 L 22.25 -20.03125 L 17.1875 -20.03125 L 17.1875 -6.875 L 9.0625 -6.875 Z M 9.0625 -33.15625 "></path></g></g></g><g fill="#032455" fill-opacity="1"><g transform="translate(260.521304, 256.856263)"><g><path d="M 11.3125 -33.15625 L 6.28125 -33.15625 L 6.28125 -28.125 L 11.3125 -28.125 Z M 24.4375 -33.15625 L 19.4375 -33.15625 L 19.4375 -28.125 L 24.4375 -28.125 Z M 24.4375 -20.03125 L 19.4375 -20.03125 L 19.4375 -6.875 L 11.3125 -6.875 L 11.3125 -20.03125 L -4.0625 -20.03125 L -4.0625 -15.015625 L 6.28125 -15.015625 L 6.28125 -1.84375 L 24.4375 -1.84375 Z M 24.4375 -20.03125 "></path></g></g></g><g fill="#032455" fill-opacity="1"><g transform="translate(89.742186, 301.85626)"><g></g></g></g><g fill="#032455" fill-opacity="1"><g transform="translate(94.183592, 301.85626)"><g><path d="M 22.296875 -33.15625 L 4.0625 -33.15625 L 4.0625 -1.84375 L 22.296875 -1.84375 Z M 17.265625 -28.125 L 17.265625 -6.875 L 9.125 -6.875 L 9.125 -28.125 Z M 17.265625 -28.125 "></path></g></g></g><g fill="#032455" fill-opacity="1"><g transform="translate(120.531186, 301.85626)"><g><path d="M 22.25 -20 L 17.21875 -20 L 17.21875 -6.875 L 4.0625 -6.875 L 4.0625 -1.84375 L 22.25 -1.84375 Z M 22.25 -20 "></path></g></g></g><g fill="#032455" fill-opacity="1"><g transform="translate(144.624636, 301.85626)"><g><path d="M 37.625 -33.15625 L 6.28125 -33.15625 L 6.28125 -20.03125 L -4.0625 -20.03125 L -4.0625 -15.015625 L 6.28125 -15.015625 L 6.28125 -1.84375 L 37.625 -1.84375 Z M 32.609375 -28.125 L 32.609375 -20.03125 L 11.34375 -20.03125 L 11.34375 -28.125 Z M 32.609375 -15.015625 L 32.609375 -6.875 L 11.34375 -6.875 L 11.34375 -15.015625 Z M 32.609375 -15.015625 "></path></g></g></g><g fill="#032455" fill-opacity="1"><g transform="translate(184.090603, 301.85626)"><g><path d="M 37.625 -33.15625 L 32.5625 -33.15625 L 32.5625 -6.875 L 24.46875 -6.875 L 24.46875 -33.15625 L 19.4375 -33.15625 L 19.4375 -6.875 L 11.3125 -6.875 L 11.3125 -33.15625 L 6.28125 -33.15625 L 6.28125 -20 L -4.0625 -20 L -4.0625 -15.015625 L 6.28125 -15.015625 L 6.28125 -1.84375 L 37.625 -1.84375 Z M 37.625 -33.15625 "></path></g></g></g><g fill="#032455" fill-opacity="1"><g transform="translate(223.556569, 301.85626)"><g><path d="M 24.4375 -33.15625 L 19.4375 -33.15625 L 19.4375 -6.875 L 11.3125 -6.875 L 11.3125 -20.03125 L -4.0625 -20.03125 L -4.0625 -15.015625 L 6.28125 -15.015625 L 6.28125 -1.84375 L 24.4375 -1.84375 Z M 24.4375 -33.15625 "></path></g></g></g><g fill="#032455" fill-opacity="1"><g transform="translate(252.047446, 301.85626)"><g><path d="M 9.0625 -33.15625 L 4.0625 -33.15625 L 4.0625 -1.84375 L 9.0625 -1.84375 Z M 9.0625 -33.15625 "></path></g></g></g><g fill="#032455" fill-opacity="1"><g transform="translate(140.268323, 322.945094)"><g><path d="M 6.5 -0.78125 L 6.5 0 L 0.484375 0 L 0.484375 -0.625 L 4.046875 -4.125 C 4.492188 -4.5625 4.796875 -4.941406 4.953125 -5.265625 C 5.117188 -5.585938 5.203125 -5.914062 5.203125 -6.25 C 5.203125 -6.75 5.023438 -7.140625 4.671875 -7.421875 C 4.328125 -7.703125 3.832031 -7.84375 3.1875 -7.84375 C 2.1875 -7.84375 1.40625 -7.523438 0.84375 -6.890625 L 0.21875 -7.4375 C 0.550781 -7.820312 0.976562 -8.117188 1.5 -8.328125 C 2.019531 -8.546875 2.609375 -8.65625 3.265625 -8.65625 C 4.140625 -8.65625 4.832031 -8.445312 5.34375 -8.03125 C 5.851562 -7.625 6.109375 -7.0625 6.109375 -6.34375 C 6.109375 -5.894531 6.007812 -5.46875 5.8125 -5.0625 C 5.613281 -4.65625 5.242188 -4.1875 4.703125 -3.65625 L 1.78125 -0.78125 Z M 6.5 -0.78125 "></path></g></g></g><g fill="#032455" fill-opacity="1"><g transform="translate(154.038082, 322.945094)"><g><path d="M 7.9375 -2.25 L 6.21875 -2.25 L 6.21875 0 L 5.328125 0 L 5.328125 -2.25 L 0.484375 -2.25 L 0.484375 -2.890625 L 5.046875 -8.59375 L 6.015625 -8.59375 L 1.625 -3.046875 L 5.359375 -3.046875 L 5.359375 -5.03125 L 6.21875 -5.03125 L 6.21875 -3.046875 L 7.9375 -3.046875 Z M 7.9375 -2.25 "></path></g></g></g><g fill="#032455" fill-opacity="1"><g transform="translate(168.94777, 322.945094)"><g></g></g></g><g fill="#032455" fill-opacity="1"><g transform="translate(178.974023, 322.945094)"><g><path d="M 5.96875 0.0625 C 5.425781 0.0625 4.960938 -0.0234375 4.578125 -0.203125 C 4.203125 -0.390625 3.941406 -0.722656 3.796875 -1.203125 C 3.347656 -1.097656 2.921875 -1.054688 2.515625 -1.078125 C 2.109375 -1.097656 1.742188 -1.175781 1.421875 -1.3125 C 1.097656 -1.445312 0.84375 -1.632812 0.65625 -1.875 C 0.46875 -2.113281 0.375 -2.398438 0.375 -2.734375 C 0.375 -3.171875 0.507812 -3.570312 0.78125 -3.9375 C 1.0625 -4.300781 1.4375 -4.609375 1.90625 -4.859375 C 2.382812 -5.117188 2.910156 -5.296875 3.484375 -5.390625 L 3.453125 -6.328125 L 4.4375 -6.328125 L 4.640625 -2.28125 C 4.648438 -1.894531 4.710938 -1.601562 4.828125 -1.40625 C 4.953125 -1.21875 5.117188 -1.09375 5.328125 -1.03125 C 5.535156 -0.96875 5.785156 -0.9375 6.078125 -0.9375 C 6.253906 -0.9375 6.378906 -0.890625 6.453125 -0.796875 C 6.535156 -0.703125 6.578125 -0.59375 6.578125 -0.46875 C 6.578125 -0.332031 6.519531 -0.207031 6.40625 -0.09375 C 6.289062 0.0078125 6.144531 0.0625 5.96875 0.0625 Z M 1.34375 -2.890625 C 1.34375 -2.703125 1.414062 -2.546875 1.5625 -2.421875 C 1.71875 -2.304688 1.910156 -2.21875 2.140625 -2.15625 C 2.378906 -2.101562 2.628906 -2.078125 2.890625 -2.078125 C 3.160156 -2.078125 3.410156 -2.097656 3.640625 -2.140625 L 3.53125 -4.375 C 3.0625 -4.332031 2.664062 -4.226562 2.34375 -4.0625 C 2.019531 -3.90625 1.769531 -3.722656 1.59375 -3.515625 C 1.425781 -3.304688 1.34375 -3.097656 1.34375 -2.890625 Z M 1.34375 -2.890625 "></path></g></g></g><g fill="#032455" fill-opacity="1"><g transform="translate(191.738689, 322.945094)"><g><path d="M 0 0.0625 L 0.125 -0.9375 C 0.632812 -0.9375 1.03125 -0.941406 1.3125 -0.953125 C 1.59375 -0.960938 1.800781 -0.972656 1.9375 -0.984375 C 2.070312 -0.992188 2.160156 -1 2.203125 -1 C 2.054688 -1.082031 1.882812 -1.210938 1.6875 -1.390625 C 1.488281 -1.566406 1.316406 -1.789062 1.171875 -2.0625 C 1.023438 -2.34375 0.953125 -2.671875 0.953125 -3.046875 C 0.953125 -3.503906 1.0625 -3.910156 1.28125 -4.265625 C 1.5 -4.617188 1.796875 -4.894531 2.171875 -5.09375 C 2.554688 -5.289062 2.992188 -5.390625 3.484375 -5.390625 C 3.878906 -5.390625 4.285156 -5.320312 4.703125 -5.1875 L 4.484375 -4.25 C 4.140625 -4.332031 3.804688 -4.375 3.484375 -4.375 C 3.035156 -4.375 2.671875 -4.253906 2.390625 -4.015625 C 2.109375 -3.773438 1.96875 -3.453125 1.96875 -3.046875 C 1.96875 -2.773438 2.035156 -2.535156 2.171875 -2.328125 C 2.304688 -2.117188 2.476562 -1.941406 2.6875 -1.796875 C 2.894531 -1.648438 3.113281 -1.539062 3.34375 -1.46875 C 3.570312 -1.394531 3.773438 -1.363281 3.953125 -1.375 C 4.078125 -1.414062 4.195312 -1.453125 4.3125 -1.484375 C 4.425781 -1.523438 4.566406 -1.578125 4.734375 -1.640625 C 4.898438 -1.703125 5.140625 -1.8125 5.453125 -1.96875 L 5.796875 -1.0625 C 5.253906 -0.84375 4.695312 -0.644531 4.125 -0.46875 C 3.5625 -0.300781 2.945312 -0.171875 2.28125 -0.078125 C 1.613281 0.015625 0.851562 0.0625 0 0.0625 Z M 0 0.0625 "></path></g></g></g><g fill="#032455" fill-opacity="1"><g transform="translate(204.711719, 322.945094)"><g><path d="M 3.5625 0.0625 C 2.90625 0.0625 2.40625 -0.0078125 2.0625 -0.15625 C 1.71875 -0.300781 1.476562 -0.53125 1.34375 -0.84375 C 1.21875 -1.15625 1.144531 -1.554688 1.125 -2.046875 L 0.890625 -8.75 L 1.890625 -8.75 L 2.140625 -2.4375 C 2.148438 -2.039062 2.1875 -1.734375 2.25 -1.515625 C 2.3125 -1.296875 2.453125 -1.144531 2.671875 -1.0625 C 2.890625 -0.976562 3.226562 -0.9375 3.6875 -0.9375 C 3.863281 -0.9375 3.988281 -0.890625 4.0625 -0.796875 C 4.144531 -0.703125 4.1875 -0.59375 4.1875 -0.46875 C 4.1875 -0.332031 4.128906 -0.207031 4.015625 -0.09375 C 3.898438 0.0078125 3.75 0.0625 3.5625 0.0625 Z M 3.5625 0.0625 "></path></g></g></g><g fill="#032455" fill-opacity="1"><g transform="translate(215.086208, 322.945094)"><g><path d="M 0 0.0625 L 0.125 -0.9375 C 0.382812 -0.9375 0.59375 -0.957031 0.75 -1 C 0.914062 -1.039062 1.054688 -1.132812 1.171875 -1.28125 C 1.285156 -1.4375 1.390625 -1.675781 1.484375 -2 C 1.578125 -2.320312 1.691406 -2.78125 1.828125 -3.375 L 2.75 -3.109375 C 2.695312 -2.898438 2.640625 -2.648438 2.578125 -2.359375 C 2.515625 -2.078125 2.484375 -1.820312 2.484375 -1.59375 C 2.484375 -1.382812 2.554688 -1.222656 2.703125 -1.109375 C 2.859375 -0.992188 3.144531 -0.9375 3.5625 -0.9375 C 3.800781 -0.9375 4 -0.957031 4.15625 -1 C 4.3125 -1.039062 4.441406 -1.140625 4.546875 -1.296875 C 4.648438 -1.453125 4.738281 -1.695312 4.8125 -2.03125 C 4.894531 -2.375 4.984375 -2.847656 5.078125 -3.453125 L 6.015625 -3.28125 C 5.984375 -3.132812 5.945312 -2.953125 5.90625 -2.734375 C 5.875 -2.523438 5.847656 -2.316406 5.828125 -2.109375 C 5.804688 -1.898438 5.796875 -1.726562 5.796875 -1.59375 C 5.796875 -1.476562 5.820312 -1.367188 5.875 -1.265625 C 5.925781 -1.160156 6.03125 -1.078125 6.1875 -1.015625 C 6.34375 -0.960938 6.582031 -0.9375 6.90625 -0.9375 C 7.257812 -0.9375 7.539062 -1.003906 7.75 -1.140625 C 7.96875 -1.285156 8.078125 -1.570312 8.078125 -2 C 8.078125 -2.300781 8.003906 -2.6875 7.859375 -3.15625 C 7.710938 -3.632812 7.550781 -4.109375 7.375 -4.578125 L 8.359375 -4.9375 C 8.460938 -4.664062 8.5625 -4.363281 8.65625 -4.03125 C 8.757812 -3.707031 8.84375 -3.378906 8.90625 -3.046875 C 8.96875 -2.722656 9 -2.441406 9 -2.203125 C 9 -1.441406 8.8125 -0.875 8.4375 -0.5 C 8.0625 -0.125 7.546875 0.0625 6.890625 0.0625 C 6.441406 0.0625 6.085938 0.00390625 5.828125 -0.109375 C 5.578125 -0.234375 5.394531 -0.421875 5.28125 -0.671875 C 5.082031 -0.367188 4.84375 -0.171875 4.5625 -0.078125 C 4.289062 0.015625 3.90625 0.0625 3.40625 0.0625 C 3.238281 0.0625 3.054688 0.0390625 2.859375 0 C 2.671875 -0.0390625 2.492188 -0.117188 2.328125 -0.234375 C 2.160156 -0.359375 2.035156 -0.535156 1.953125 -0.765625 C 1.734375 -0.410156 1.46875 -0.179688 1.15625 -0.078125 C 0.84375 0.015625 0.457031 0.0625 0 0.0625 Z M 0 0.0625 "></path></g></g></g><g fill="#032455" fill-opacity="1"><g transform="translate(231.505055, 322.945094)"><g></g></g></g></svg>